<svg xmlns="http://www.w3.org/2000/svg" viewBox="0 0 750 500"><g id="freepik--background-simple--inject-4"><path d="M697.69,188.52S592.19,73.21,431.09,34,246.27,123.15,200.47,173.8s-129.22,45-170.11,107.13,4.09,171.74,204.45,199.55,188.1-79.33,312.4-59.7S814.64,334.91,697.69,188.52Z" style="fill:#C53F3F"></path><path d="M697.69,188.52S592.19,73.21,431.09,34,246.27,123.15,200.47,173.8s-129.22,45-170.11,107.13,4.09,171.74,204.45,199.55,188.1-79.33,312.4-59.7S814.64,334.91,697.69,188.52Z" style="fill:#fff;opacity:0.7000000000000001"></path></g><g id="freepik--picture-2--inject-4"><rect x="571.75" y="123.42" width="145.9" height="192.79" style="fill:#b5b5b5;stroke:#263238;stroke-miterlimit:10"></rect><rect x="577.93" y="131.59" width="133.54" height="176.46" style="fill:#b5b5b5;stroke:#263238;stroke-miterlimit:10"></rect><rect x="582.01" y="136.99" width="125.37" height="165.66" style="fill:#fff;stroke:#263238;stroke-miterlimit:10"></rect><path d="M620.54,248.59c-3.16,8.94-6.17,18-9.67,26.57-9.46,23.11-21.2,27-26.3,27.49a10.59,10.59,0,0,1-2.55,0" style="fill:#fff;stroke:#263238;stroke-miterlimit:10"></path><path d="M687.92,176.49c-9.21,4.32-19.5,8.91-30.11,15.18-12.76,7.53-21,19.07-27.41,32.26" style="fill:#fff;stroke:#263238;stroke-miterlimit:10"></path><path d="M707.38,166a103.2,103.2,0,0,1-12.5,7.16" style="fill:#fff;stroke:#263238;stroke-miterlimit:10"></path><path d="M613.6,137c-1.06,10.09-.11,20,5.74,25.46,15.27,14.31,27.72,10.14,57.13-13.72A124,124,0,0,1,694,137Z" style="fill:#d4d4d4;stroke:#263238;stroke-miterlimit:10"></path><path d="M582,183.93c7.63,4.19,14.89,10.89,16.4,21.45,1.69,11.93-6.65,21.18-16.4,27.81Z" style="fill:#d4d4d4;stroke:#263238;stroke-miterlimit:10"></path><path d="M707.38,211.69c-17.43,4.17-44.47,14.1-49,36-4.1,19.81,11.19,41.13,23.94,54.92h25.07Z" style="fill:#d4d4d4;stroke:#263238;stroke-miterlimit:10"></path><ellipse cx="614.82" cy="188.68" rx="14.71" ry="15.51" style="fill:#d4d4d4;stroke:#263238;stroke-miterlimit:10"></ellipse><ellipse cx="643.38" cy="248.03" rx="6.5" ry="6.86" style="fill:#d4d4d4;stroke:#263238;stroke-miterlimit:10"></ellipse><path d="M690.61,237a5.1,5.1,0,1,1-5.09-5.36A5.23,5.23,0,0,1,690.61,237Z" style="fill:#fff;stroke:#263238;stroke-miterlimit:10"></path><ellipse cx="596.44" cy="259.96" rx="3.68" ry="3.88" style="fill:#fff;stroke:#263238;stroke-miterlimit:10"></ellipse><path d="M658.37,147.53A3.4,3.4,0,1,1,655,144,3.49,3.49,0,0,1,658.37,147.53Z" style="fill:#fff;stroke:#263238;stroke-miterlimit:10"></path><line x1="571.75" y1="123.42" x2="582.01" y2="136.99" style="fill:none;stroke:#263238;stroke-miterlimit:10"></line><line x1="717.65" y1="123.42" x2="707.38" y2="136.99" style="fill:none;stroke:#263238;stroke-miterlimit:10"></line><line x1="707.38" y1="302.64" x2="717.65" y2="316.21" style="fill:none;stroke:#263238;stroke-miterlimit:10"></line><line x1="571.75" y1="316.21" x2="582.01" y2="302.64" style="fill:none;stroke:#263238;stroke-miterlimit:10"></line><polygon points="596.53 409.21 616.52 324.64 602 324.14 582.94 409.21 596.53 409.21" style="fill:#d4d4d4;stroke:#263238;stroke-miterlimit:10"></polygon><polygon points="703.14 409.21 684.08 324.14 669.56 324.64 689.55 409.21 703.14 409.21" style="fill:#d4d4d4;stroke:#263238;stroke-miterlimit:10"></polygon><rect x="559.8" y="316.1" width="162.9" height="11.06" style="fill:#d4d4d4;stroke:#263238;stroke-miterlimit:10"></rect><rect x="634.53" y="99.36" width="19.52" height="24.02" style="fill:#d4d4d4;stroke:#263238;stroke-miterlimit:10"></rect></g><g id="freepik--pictures-1--inject-4"><rect x="100.21" y="106.02" width="61.62" height="79.22" style="fill:none;stroke:#263238;stroke-linecap:round;stroke-linejoin:round"></rect><rect x="104.19" y="111.13" width="53.66" height="68.99" style="fill:none;stroke:#263238;stroke-linecap:round;stroke-linejoin:round"></rect><rect x="122.36" y="134.49" width="17.32" height="22.27" style="fill:none;stroke:#263238;stroke-linecap:round;stroke-linejoin:round"></rect><rect x="179.03" y="165.23" width="61.62" height="79.22" style="fill:none;stroke:#263238;stroke-linecap:round;stroke-linejoin:round"></rect><rect x="183.01" y="170.35" width="53.66" height="68.99" style="fill:none;stroke:#263238;stroke-linecap:round;stroke-linejoin:round"></rect><rect x="201.18" y="193.71" width="17.32" height="22.27" style="fill:none;stroke:#263238;stroke-linecap:round;stroke-linejoin:round"></rect><rect x="100.21" y="197.71" width="61.62" height="46.28" style="fill:none;stroke:#263238;stroke-linecap:round;stroke-linejoin:round"></rect><rect x="104.19" y="200.7" width="53.66" height="40.3" style="fill:none;stroke:#263238;stroke-linecap:round;stroke-linejoin:round"></rect><rect x="122.36" y="214.34" width="17.32" height="13.01" style="fill:none;stroke:#263238;stroke-linecap:round;stroke-linejoin:round"></rect></g><g id="freepik--Lamps--inject-4"><line x1="566.89" y1="46.56" x2="566.89" y2="15.24" style="fill:none;stroke:#263238;stroke-miterlimit:10"></line><rect x="559.06" y="41.34" width="15.66" height="7.46" style="fill:#b5b5b5;stroke:#263238;stroke-miterlimit:10"></rect><circle cx="566.51" cy="75.64" r="11.18" transform="translate(-0.76 145.31) rotate(-14.61)" style="fill:#fff;stroke:#263238;stroke-miterlimit:10"></circle><path d="M614.13,79.36c-5.5-18.87-24.56-32.8-47.24-32.8s-41.75,13.93-47.24,32.8Z" style="fill:#d4d4d4;stroke:#263238;stroke-miterlimit:10"></path><line x1="142.65" y1="46.56" x2="142.65" y2="15.24" style="fill:none;stroke:#263238;stroke-miterlimit:10"></line><rect x="134.82" y="41.34" width="15.66" height="7.46" style="fill:#b5b5b5;stroke:#263238;stroke-miterlimit:10"></rect><circle cx="142.28" cy="75.64" r="11.18" transform="translate(-17.02 99.88) rotate(-36.65)" style="fill:#fff;stroke:#263238;stroke-miterlimit:10"></circle><path d="M189.89,79.36c-5.5-18.87-24.56-32.8-47.24-32.8S100.9,60.49,95.41,79.36Z" style="fill:#d4d4d4;stroke:#263238;stroke-miterlimit:10"></path></g><g id="freepik--Plant--inject-4"><path d="M484.17,396.61c0,.76.09,1.52.14,2.27.12,1.52.21,3,.35,4.55.18,1.86.42,3.72.69,5.58h.6l0-1.12c0-1.51-.17-3-.15-4.53s0-3,0-4.52l0-2.26,0-2.26,0-4.52.12-4.51.05-2.26c0-.75.08-1.51.12-2.26l.28-4.51a159.36,159.36,0,0,1,2.56-17.9A105.13,105.13,0,0,1,493.75,341h0a.09.09,0,0,0-.05-.1.07.07,0,0,0-.1,0,105,105,0,0,0-5.52,17.31,159.78,159.78,0,0,0-3,17.95l-.43,4.53c-.07.76-.15,1.52-.2,2.27l-.13,2.28c-.06,1.52-.16,3-.2,4.55l0,4.56Z" style="fill:#263238"></path><path d="M489.09,409c.31-3.1.53-6.19.74-9.28.28-3.94.32-7.9.58-11.85a105.61,105.61,0,0,1,1.41-11.74,106.71,106.71,0,0,1,2.58-11.57.08.08,0,0,0,0-.1s-.08,0-.1,0a105.51,105.51,0,0,0-5.11,23.26c-.4,4-.85,7.91-.9,11.88-.05,3.12,0,6.23.2,9.35Z" style="fill:#263238"></path><path d="M492.26,409l.57-6.59a100,100,0,0,1,1.46-11.35c.1-.46.23-.92.35-1.38a13,13,0,0,1,.4-1.35l.47-1.33.6-1.26a34.32,34.32,0,0,1,3.14-4.76,39.47,39.47,0,0,1,8.22-8h0a.08.08,0,0,0,0-.1.09.09,0,0,0-.11,0,40.33,40.33,0,0,0-8.76,7.63,35.88,35.88,0,0,0-3.42,4.76l-.71,1.33L494,388a14.46,14.46,0,0,0-.48,1.4c-.14.47-.3.94-.42,1.41a56.13,56.13,0,0,0-1.82,11.55c-.09,2.23-.09,4.47,0,6.7Z" style="fill:#263238"></path><path d="M494,409h.77q.12-.67.21-1.35c.16-1,.32-2,.44-3s.28-2,.36-3,.21-2,.43-3a27.13,27.13,0,0,1,1.71-5.81,12.78,12.78,0,0,1,3.34-5h0a.08.08,0,0,0-.09-.13,12.6,12.6,0,0,0-4,4.79,27.87,27.87,0,0,0-2.23,5.86c-.16.5-.28,1-.39,1.52l-.36,1.53a25.17,25.17,0,0,0-.39,3.11c0,1,0,2.09,0,3.13C493.88,408.08,493.92,408.54,494,409Z" style="fill:#263238"></path><path d="M479.46,384.15c.63,5.08,1.11,10.16,1.75,15.22l1.18,9.64h.92l-.06-2.12c0-2.57-.26-5.13-.45-7.69-.44-5.11-1.28-10.17-2.08-15.23s-1.68-10.1-2.6-15.13-2-10-3.05-15a.08.08,0,0,0-.09-.06.07.07,0,0,0-.06.09c.87,5,1.66,10.09,2.41,15.15S478.82,379.08,479.46,384.15Z" style="fill:#263238"></path><path d="M470.16,370.25c.44.91.91,1.8,1.29,2.74l.6,1.39.53,1.42A82.82,82.82,0,0,1,476,387.43c.47,2,.78,4,1.16,6l.47,3c.18,1,.39,2,.53,3,.32,2,.69,4,1,6,.19,1.22.4,2.43.63,3.65h.6c0-1.26-.05-2.52-.12-3.78-.12-2-.36-4.07-.57-6.1s-.65-4-1-6l-.72-3c-.23-1-.46-2-.75-3a83.63,83.63,0,0,0-3.91-11.63l-.61-1.4-.68-1.38c-.43-.93-1-1.81-1.45-2.7a22.85,22.85,0,0,0-3.69-4.89.08.08,0,0,0-.12.11h0A22.2,22.2,0,0,1,470.16,370.25Z" style="fill:#263238"></path><path d="M474.29,399.79c.8,2.69,1.37,5.44,2.08,8.14.1.36.2.72.29,1.08h1.52c-.08-.48-.15-1-.25-1.43a52.78,52.78,0,0,0-2.43-8.19c-.95-2.68-2-5.31-3.24-7.88a69.88,69.88,0,0,0-4.07-7.46.08.08,0,0,0-.14.08,68.21,68.21,0,0,1,3.48,7.7C472.57,394.44,473.5,397.09,474.29,399.79Z" style="fill:#263238"></path><path d="M465.31,397.05a11.68,11.68,0,0,1,3.92,3.05,18.38,18.38,0,0,1,2.73,4.13c.78,1.47,1.18,3.09,1.85,4.61,0,.05.05.11.07.17h1.6c-.05-.23-.1-.46-.16-.68a18.12,18.12,0,0,0-2.25-4.72,19.23,19.23,0,0,0-3.27-4.07,13.75,13.75,0,0,0-2.09-1.57,8.4,8.4,0,0,0-2.36-1.07.09.09,0,0,0-.09,0,.08.08,0,0,0,0,.11Z" style="fill:#263238"></path><path d="M475.64,361.11a14.56,14.56,0,0,1-10.31-11c-1.93-9,4.3-5.15-1.29-19.33s-4.29-17.4-2.36-21.48,3-2.79,4.72,2.58,8,13.75,10.31,29.43S475.64,361.11,475.64,361.11Z" style="fill:#C53F3F"></path><path d="M492.18,345.86s-5.59-1.94-5.8-12.46,4.08-8.38,4.72-21.48,1.51-22.34,3.87-22.55,8.59,6.44,10.74,21.05-2.79,24.27-7.09,28.56S492.18,345.86,492.18,345.86Z" style="fill:#C53F3F"></path><path d="M472.63,373.78s-1.29-7.73-3.86-11.39-8.16-6.87-11.82-14-7.73-10.52-7.51-.43,4.72,15.25,10.31,18.69S472.63,373.78,472.63,373.78Z" style="fill:#C53F3F"></path><path d="M470.27,387.09a77.11,77.11,0,0,0-12.67-17.18c-7.52-7.3-13.53-11-11.39-7.3s4.73,3.44,8.38,9.88,2.58,11.17,7.73,14.82S470.27,387.09,470.27,387.09Z" style="fill:#C53F3F"></path><path d="M469.63,399.77c-.22-.65-.43-5.37-7.74-9.24s-14.17-2.36-13.31-.43,5.37,5.16,9.88,7.09S469.63,399.77,469.63,399.77Z" style="fill:#C53F3F"></path><path d="M491.75,374.21s-3.22-4.08-1.5-12.68,5.58-6.44,9.88-10.95,3.43-5.15,7.73-9.88,8.16-7.3,9.88-5.37-.86,7.95-3.44,11.38-6.66,5.16-8.59,9.46-1.07,11.16-6,14.39S491.75,374.21,491.75,374.21Z" style="fill:#C53F3F"></path><path d="M502.49,376.57s7.73-8.81,13.32-15.25,7.73-11.38,7.94-7.09,1.93,7.73-2.58,13.32S502.49,376.57,502.49,376.57Z" style="fill:#C53F3F"></path><path d="M498.41,390.75s-.22-3.44,12-11.39,17.39-9.45,16.1-6.23-6.65,6.45-12.45,12.25S498.41,390.75,498.41,390.75Z" style="fill:#C53F3F"></path><path d="M476.15,360.19s-2.87-15.41-5.88-26.36-4.94-17.61-4.94-17.61" style="fill:none;stroke:#263238;stroke-linecap:round;stroke-linejoin:round"></path><path d="M491.68,346s5.22-16.7,6.94-26.8-.21-17.61-1.07-22.12" style="fill:none;stroke:#263238;stroke-linecap:round;stroke-linejoin:round"></path><path d="M472,373.45A80.72,80.72,0,0,0,464,362.18c-4.72-5.59-8.37-8.59-10.52-14" style="fill:none;stroke:#263238;stroke-linecap:round;stroke-linejoin:round"></path><path d="M491.75,374.21s1.72-10.31,5.8-15.68,12.24-13.75,15.46-19.12" style="fill:none;stroke:#263238;stroke-linecap:round;stroke-linejoin:round"></path><path d="M469.12,399.53s-7.23-4.7-12.38-7.28" style="fill:none;stroke:#263238;stroke-linecap:round;stroke-linejoin:round"></path></g><g id="freepik--speech-bubble--inject-4"><path d="M507,176.57c0-16-17.72-29-39.58-29s-39.58,13-39.58,29,17.72,29,39.58,29a52.36,52.36,0,0,0,15.24-2.23l15.47,9.74-5.46-14.18C501.37,193.58,507,185.55,507,176.57Z" style="fill:#263238"></path><path d="M457.23,176.27a3.46,3.46,0,1,0-3.46,3.46A3.46,3.46,0,0,0,457.23,176.27Z" style="fill:#fff"></path><path d="M471.17,176.27a3.46,3.46,0,1,0-3.46,3.46A3.46,3.46,0,0,0,471.17,176.27Z" style="fill:#fff"></path><path d="M485.11,176.27a3.46,3.46,0,1,0-3.46,3.46A3.46,3.46,0,0,0,485.11,176.27Z" style="fill:#fff"></path></g><g id="freepik--character-5--inject-4"><path d="M503.49,282.92l-13.85-9.83c-2.08-1.49-10.13-1-12.36-.3s-4.77,1.19-2.83,4.32,9.83,10.87,11.47,12.21,6.4.9,7.29.9h2.54l5.06,2.53Z" style="fill:#fff;stroke:#263238;stroke-miterlimit:10"></path><rect x="471.65" y="250.19" width="2.48" height="43.84" transform="matrix(0.81, -0.58, 0.58, 0.81, -69.86, 327.7)" style="fill:#919191;stroke:#263238;stroke-miterlimit:10"></rect><rect x="446.78" y="247.09" width="3.68" height="14.12" rx="0.97" transform="translate(-63.94 310.13) rotate(-35.77)" style="fill:#919191;stroke:#263238;stroke-miterlimit:10"></rect><path d="M463.36,235.82H465A1.13,1.13,0,0,1,466.1,237v11.86a1.13,1.13,0,0,1-1.13,1.13h-1.61a.93.93,0,0,1-.93-.93V236.76A.93.93,0,0,1,463.36,235.82Z" transform="translate(-54.41 317.14) rotate(-35.76)" style="fill:#919191;stroke:#263238;stroke-miterlimit:10"></path><rect x="448.6" y="241.45" width="15.68" height="14.12" rx="1.27" transform="matrix(0.81, -0.58, 0.58, 0.81, -59.17, 313.64)" style="fill:#919191;stroke:#263238;stroke-miterlimit:10"></rect><rect x="452.85" y="241.54" width="6.95" height="14.12" transform="translate(-59.25 313.58) rotate(-35.76)" style="fill:#fff;stroke:#263238;stroke-miterlimit:10"></rect><path d="M494,276.37s-4.92-4.32-7-5.22-10.87-3.72-13-5.06-4.32-3.43-4-.74,2.23,5.8,4.32,6.7a20.39,20.39,0,0,0,4.91,1.19s2.69,5.36,5.07,6.55a11.26,11.26,0,0,0,5.36.9" style="fill:#fff;stroke:#263238;stroke-miterlimit:10"></path><path d="M474.3,272.05s-6.4,4.17-6.4,4.91.89,2.83,1.93,3,7.75-3.72,8.49-4.32-.74-1.78-1-2.83S475.19,271.75,474.3,272.05Z" style="fill:#fff;stroke:#263238;stroke-miterlimit:10"></path><path d="M478.9,277s-6.31,3.71-6.57,4.49a2.45,2.45,0,0,0,1.21,2.33c.6.26,2.16-.34,3.37-1.21s3.89-2,3.89-3.19S480.11,276.88,478.9,277Z" style="fill:#fff;stroke:#263238;stroke-miterlimit:10"></path><path d="M481.4,280.17s-6.31,3.71-6.57,4.49A2.48,2.48,0,0,0,476,287c.61.26,2.16-.34,3.37-1.21s3.89-2,3.89-3.2S482.61,280.08,481.4,280.17Z" style="fill:#fff;stroke:#263238;stroke-miterlimit:10"></path><path d="M484.09,283.22s-5.41,3.19-5.63,3.85a2.11,2.11,0,0,0,1,2c.52.23,1.86-.29,2.9-1s3.33-1.71,3.33-2.75S485.13,283.14,484.09,283.22Z" style="fill:#fff;stroke:#263238;stroke-miterlimit:10"></path><path d="M549.6,261.1,545,295l-36.1-11.89-5.72,16.07s52.6,24,54.8,22.67,7.71-18.05,7.71-18.05Z" style="fill:#C53F3F;stroke:#263238;stroke-miterlimit:10"></path><path d="M579.17,352.71,582,409h60.13l6.66-46.21s1-11.5-3.84-19.77c0,0-28.45,6.66-43.78,6.66s-21.79-.61-21.79-.61Z" style="fill:#263238;stroke:#263238;stroke-miterlimit:10"></path><polyline points="593.9 363.41 597.94 366.03 602.18 408.81" style="fill:none;stroke:#fff;stroke-miterlimit:10"></polyline><path d="M546.13,248.26s4.5,43.05,6.51,45.3,22.77,26,22.77,26l2,35.79,9,3.5,2-4.5,2,5.25s4.5,2,24.27,0S650,346.12,650,346.12s-14.27-43.55-16.77-49.3-12.51-40.55-26-51.81S572.31,227,570.4,226.49s-3.5-.75-3.5-.75Z" style="fill:#C53F3F;stroke:#263238;stroke-miterlimit:10"></path><path d="M572.73,230.21l1.44,32.28s-4.31,1.79-4.85,2.15,5.56,8.25,5.56,8.25-3,13.45-3,22.06a66.15,66.15,0,0,0,1.61,14.88s-14-14.35-17.4-17.4" style="fill:none;stroke:#263238;stroke-miterlimit:10"></path><polygon points="583.36 345.47 583.36 409.01 520.99 409.01 520.99 333.69 583.36 345.47" style="fill:#919191;stroke:#263238;stroke-miterlimit:10"></polygon><path d="M583.36,345.47v8c-7.1-1.3-19.37-3.58-21.56-4.13-3.11-.77-3.63-5.7-3.63-5.7L521,336.89v-3.2Z" style="fill:#263238;stroke:#263238;stroke-miterlimit:10"></path><rect x="502.02" y="335.93" width="96" height="3.74" transform="translate(70.4 -94.17) rotate(10.45)" style="fill:#919191;stroke:#263238;stroke-miterlimit:10"></rect><path d="M579.7,245.8s-8.67,9.95-5.53,16.69,27.09,34.15,27.09,34.15L585,327.78,595.41,336s25-28,27.15-31.41,6.12-8.52,5.59-11.18-23.16-41.8-26.09-45.52" style="fill:#C53F3F;stroke:#263238;stroke-miterlimit:10"></path><polygon points="585.03 327.78 582.33 331.36 591.35 338.55 593.97 335.15 585.03 327.78" style="fill:#fff;stroke:#263238;stroke-miterlimit:10"></polygon><path d="M570.68,347.58a5.33,5.33,0,0,0,2.12-.08c.88-.29,3.08-2.78,3.08-2.78l-2-.3Z" style="fill:#fff;stroke:#263238;stroke-miterlimit:10"></path><path d="M582.33,331.36s-16.62-1.18-18.59-1.18-3.09,1.94-4.84,3.92c-.87,1-4.26,6.37-4.26,6.37s1.78,5.93,2.82,5.8l1-.13a7.22,7.22,0,0,0,3.14.92,10.31,10.31,0,0,0,2.09-.13,6.93,6.93,0,0,0,2.49.39h1.57a5,5,0,0,0,2.88.26c1.31-.39,6-7.46,6-7.46s6.28,2.75,9.16.79a12.87,12.87,0,0,0,3.79-3.53Z" style="fill:#fff;stroke:#263238;stroke-miterlimit:10"></path><path d="M558.51,346.14s3.14-10.86,4.32-12.56" style="fill:none;stroke:#263238;stroke-miterlimit:10"></path><path d="M563.74,346.93s3.41-11.52,3.8-12.69" style="fill:none;stroke:#263238;stroke-miterlimit:10"></path><path d="M567.8,347.32s4.19-10.86,5-11.78" style="fill:none;stroke:#263238;stroke-miterlimit:10"></path><polygon points="508.88 283.11 503.05 281.28 498.88 294.83 504.09 297.07 508.88 283.11" style="fill:#fff;stroke:#263238;stroke-miterlimit:10"></polygon><path d="M569,299.61a157.14,157.14,0,0,1-11.86-11.56,21.57,21.57,0,0,1-3.21-4.4c-2.15-4.66-6.21-33.13-6.21-33.13C550.63,242.68,568.5,226,568.5,226S565.74,255,565,268.41a71.06,71.06,0,0,0,.21,9.29A145.52,145.52,0,0,0,569,299.61Z" style="fill:#fff;stroke:#263238;stroke-miterlimit:10"></path><path d="M569,299.61a157.14,157.14,0,0,1-11.86-11.56l-1.77-22.87L551,259.8l.71-7.71,8.25,4.3-1.61,8.25,6.84,13.06A145.52,145.52,0,0,0,569,299.61Z" style="fill:#263238;stroke:#263238;stroke-miterlimit:10"></path><path d="M565.33,263.42c1-14.52,3.17-37.39,3.17-37.39s-17.87,16.65-20.81,24.49c0,0,.84,5.88,2,12.73l.13-.05,4.48-6.27Z" style="fill:#fff;stroke:#263238;stroke-miterlimit:10"></path><path d="M520.07,202.83s-.92,7.73-.37,10.86,1.48,6.63,1.48,9.39-4.42,10.5-2.77,11.42a45.42,45.42,0,0,0,6.82,2.21s9.57,14,11.23,13.81,6.26-3.68,6.26-3.68,7,5.15,8.47,6.63a9,9,0,0,0,3.68,2L568.5,226l-5.34-4.24s4.23-13.81,4.05-20.8-14-17.87-22.83-18.05-23.39,7.37-26.89,12.71S517.31,202.83,520.07,202.83Z" style="fill:#fff;stroke:#263238;stroke-miterlimit:10"></path><path d="M567.21,201c-.18-7-14-17.87-22.83-18.05s-23.39,7.37-26.89,12.71-.18,7.18,2.58,7.18a28.44,28.44,0,0,0,7-1.48c2.58-1.1,8.1-4,8.1-4s-2.39,10.13-1.66,11,8.84,2,8.84,2,1.11,2.39,1.66,3.31,2.76.92,3.31.19,0-3.32.56-4.42,5.89-2,7.36,2.57-.55,8.29-1.47,9,1.29.37,4.05,1.1a9,9,0,0,0,5.34-.37S567.39,208,567.21,201Z" style="fill:#263238;stroke:#263238;stroke-miterlimit:10"></path><path d="M528.61,220.65c.52,1,.51,2.12,0,2.39s-1.41-.35-1.94-1.4-.51-2.11,0-2.38S528.08,219.61,528.61,220.65Z" style="fill:#263238"></path><path d="M523.75,217.37s-.92-3.86,5.53-2.57" style="fill:none;stroke:#263238;stroke-miterlimit:10"></path><path d="M530.93,235.79a7.26,7.26,0,0,0,6.45-5.16s1.1,4.42-.18,7S530.93,235.79,530.93,235.79Z" style="fill:#263238;stroke:#263238;stroke-miterlimit:10"></path><polygon points="542.72 246.84 549.72 240.94 547.69 250.52 542.72 246.84" style="fill:#263238;stroke:#263238;stroke-miterlimit:10"></polygon><path d="M553.77,221.06l-1.84,1.65s2,3.69,2.21,5.71a6.27,6.27,0,0,1-.37,3.13" style="fill:none;stroke:#263238;stroke-miterlimit:10"></path></g><g id="freepik--character-3--inject-4"><path d="M257.1,357.71H227.62a4.62,4.62,0,0,0-4.54,5.48L231.73,409h38.88l-9-47.49A4.61,4.61,0,0,0,257.1,357.71Z" style="fill:#263238;stroke:#263238;stroke-miterlimit:10"></path><path d="M322.44,321.06s0-13.46,1-16.22,8.88-10.49,10.13-11.26,3.91-.77,4.25,1,1.06,18.32.2,19.87a14.94,14.94,0,0,1-3.54,4.08c-.57.22-.92,4.53-.92,4.53Z" style="fill:#fff;stroke:#263238;stroke-miterlimit:10"></path><polygon points="335.1 311.84 332.72 311.84 334.74 276.24 337.12 276.24 335.1 311.84" style="fill:#fff;stroke:#263238;stroke-miterlimit:10"></polygon><ellipse cx="336.46" cy="253.97" rx="24.54" ry="16.65" transform="translate(48.54 561.88) rotate(-83.97)" style="fill:#C53F3F;stroke:#263238;stroke-miterlimit:10"></ellipse><path d="M336.12,266.22a6.71,6.71,0,0,1-3.35-1.07,4.86,4.86,0,0,1-1.86-2.41,8,8,0,0,1-.39-3.52l.07-.84,3.3.29,0,.26c0,.1,0,.19,0,.3a9.52,9.52,0,0,0,.09,2,2.65,2.65,0,0,0,.72,1.5,2.55,2.55,0,0,0,1.71.68,2.59,2.59,0,0,0,1.88-.41,2.94,2.94,0,0,0,1-1.56,12.11,12.11,0,0,0,.43-2.41,6.52,6.52,0,0,0-.45-3.31,3,3,0,0,0-2.45-1.61l-.23-.05-.23,0,.28-3.33.22,0,.22,0a3.45,3.45,0,0,0,2.63-.72,4.25,4.25,0,0,0,1-2.82,5.55,5.55,0,0,0-.34-2.79,2.37,2.37,0,0,0-2.19-1.22,2.28,2.28,0,0,0-2.37.94,7.1,7.1,0,0,0-.87,2.85l0,.27a2.11,2.11,0,0,1,0,.26l-3.3-.28.08-.84a7.82,7.82,0,0,1,1-3.39,4.89,4.89,0,0,1,2.25-2,7.18,7.18,0,0,1,3.51-.48,6.86,6.86,0,0,1,3.38,1.08,4.91,4.91,0,0,1,1.87,2.4,8,8,0,0,1,.38,3.52,6.17,6.17,0,0,1-1.29,3.56,4.87,4.87,0,0,1-2.79,1.64,4.23,4.23,0,0,1,1.84,1.35,5.61,5.61,0,0,1,1.05,2.24,9.2,9.2,0,0,1,.18,3,11.15,11.15,0,0,1-1,3.85,5.27,5.27,0,0,1-2.21,2.42A6.44,6.44,0,0,1,336.12,266.22Z" style="fill:#263238"></path><path d="M323.49,316.31s-1.36-11-.66-13.68,5.37-9.05,6.29-11.7,2.53-3.75,3.25-2.76.81,3.2,0,5.08-3,6.4-3,6.4,2.78,7.39,2.44,9.49a23.05,23.05,0,0,1-1.72,5" style="fill:#fff;stroke:#263238;stroke-miterlimit:10"></path><path d="M339.37,289.27s-4.6,3.21-4.86,4-.21,3.64.78,3.75,4.07-1.77,5.38-3.42a3.76,3.76,0,0,0,.77-4C341.05,288.83,340.4,288.61,339.37,289.27Z" style="fill:#fff;stroke:#263238;stroke-miterlimit:10"></path><path d="M340.1,306.89s1.38-.71,1.56.81-.3,3.65-1.41,4.28-3.9,1.16-4.41.8-1.38-.89-.34-1.87S340.1,306.89,340.1,306.89Z" style="fill:#fff;stroke:#263238;stroke-miterlimit:10"></path><path d="M340.75,299.87s1.71-.88,1.93,1-.36,4.53-1.73,5.3-4.83,1.44-5.47,1-1.7-1.1-.42-2.31S340.75,299.87,340.75,299.87Z" style="fill:#fff;stroke:#263238;stroke-miterlimit:10"></path><path d="M339.83,294.68s1.71-.88,1.93,1S341.4,300.2,340,301s-4.83,1.44-5.47,1-1.7-1.11-.42-2.32S339.83,294.68,339.83,294.68Z" style="fill:#fff;stroke:#263238;stroke-miterlimit:10"></path><path d="M292.83,337.43l19.88,21.32L319.4,324l16.89,2.69s-3.16,51.83-4.35,57S330,394,327.31,394.2s-19.59-6.73-19.59-6.73Z" style="fill:#C53F3F;stroke:#263238;stroke-miterlimit:10"></path><line x1="312.21" y1="371.35" x2="312.1" y2="374.26" style="fill:none;stroke:#263238;stroke-miterlimit:10"></line><line x1="312.71" y1="358.75" x2="312.3" y2="369.22" style="fill:none;stroke:#263238;stroke-miterlimit:10"></line><polygon points="321.39 324.32 321.87 319.84 335.43 322.08 334.97 326.34 321.39 324.32" style="fill:#fff;stroke:#263238;stroke-miterlimit:10"></polygon><path d="M260.1,321.06s-25.79,27.59-27.1,34.77S238.74,409,238.74,409h75.61s-14.64-62.38-19.44-68.66A53.45,53.45,0,0,0,280,326.66C274.77,323.52,260.1,321.06,260.1,321.06Z" style="fill:#C53F3F;stroke:#263238;stroke-miterlimit:10"></path><path d="M281.58,365.7c6.78,3.15,16.5,9.65,16.5,9.65l-.68-15.7" style="fill:none;stroke:#263238;stroke-miterlimit:10"></path><path d="M253.72,330.7s.75,2.7,6,12.12,8.16,14.36,8.16,14.36l7.12-2.92-2.81,6.06a34.62,34.62,0,0,0,6.27,3.88" style="fill:none;stroke:#263238;stroke-miterlimit:10"></path><line x1="306.01" y1="395.97" x2="307.47" y2="399.81" style="fill:none;stroke:#263238;stroke-miterlimit:10"></line><line x1="299.46" y1="378.72" x2="304.63" y2="392.32" style="fill:none;stroke:#263238;stroke-miterlimit:10"></line><line x1="265.04" y1="398.34" x2="266.33" y2="405.19" style="fill:none;stroke:#263238;stroke-miterlimit:10"></line><path d="M243,349.1s10.91,1.57,12.65,6.51,3.76,12.79,3.76,12.79l5,26.84" style="fill:none;stroke:#263238;stroke-miterlimit:10"></path><path d="M260.1,321.06s-1.2,1.28-3.09,3.37c2,2.84,8.33,11.77,12.72,16.82,5.26,6.06,24.35,25.58,24.35,25.58s-1.58-23.56-5.12-32.31c-.22-.54-.46-1.06-.7-1.56a50.53,50.53,0,0,0-8.28-6.3C274.77,323.52,260.1,321.06,260.1,321.06Z" style="fill:#fff;stroke:#263238;stroke-miterlimit:10"></path><path d="M292.24,349.33l-4.62-3.15,0-8.3-6.75-3.59-4,7.63,7.57,4.94,1.89,12c4.34,4.49,7.75,8,7.75,8S293.49,358.12,292.24,349.33Z" style="fill:#263238;stroke:#263238;stroke-miterlimit:10"></path><path d="M290.81,341.08a41.05,41.05,0,0,0-1.85-6.56c-.22-.54-.46-1.06-.7-1.56a50.53,50.53,0,0,0-8.28-6.3c-5.21-3.14-19.88-5.6-19.88-5.6s-1.2,1.28-3.09,3.37c2,2.84,8.33,11.77,12.72,16.82,1.39,1.6,3.74,4.14,6.46,7l5.66-11.05Z" style="fill:#fff;stroke:#263238;stroke-miterlimit:10"></path><path d="M300.61,279.32s2.28,11.22,1.76,12.57-1.78,3.59-1.78,3.59,6.56,11,5.11,12.79a10.36,10.36,0,0,1-4.19,2.69s-2.78,13.46-4.63,14.36-9.22.45-9.22.45l-5.81,11.44s-2.77,1.35-8.11-3.37-13.64-12.78-13.64-12.78l3.55-7.18s-9.25-11-9.64-20,11.45-23.79,24.31-25.13S303.4,273.71,300.61,279.32Z" style="fill:#fff;stroke:#263238;stroke-miterlimit:10"></path><path d="M296.88,325.32c1.85-.9,4.63-14.36,4.63-14.36a9.7,9.7,0,0,0-6.94-.23,15.33,15.33,0,0,0-6.09,4.49l-10.86-6.28-1-13.91s6.41-6.28,9.42-7.85-2.34-6.29-3.83-7.63,18.41-.23,18.41-.23c2.79-5.61-9.42-11.89-22.29-10.54s-24.7,16.15-24.31,25.13,9.64,20,9.64,20l5.79-3.15a3.63,3.63,0,0,0-1.92-1.79c-1.32-.45-4.09-7-2.82-9.65s6-2.47,7.86,0,.51,18.62,2.19,20.64,12.91,5.84,12.91,5.84S295,326.22,296.88,325.32Z" style="fill:#263238;stroke:#263238;stroke-miterlimit:10"></path><path d="M297.73,298.51c-.07,1.17-.62,2.13-1.24,2.13s-1.07-1-1-2.13.62-2.14,1.24-2.14S297.8,297.33,297.73,298.51Z" style="fill:#263238"></path><path d="M292.09,295a6.33,6.33,0,0,1,7.3-2" style="fill:none;stroke:#263238;stroke-miterlimit:10"></path><path d="M297.84,316.34a4.74,4.74,0,0,1-5.28-1.79" style="fill:none;stroke:#fff;stroke-miterlimit:10"></path></g><g id="freepik--character-4--inject-4"><path d="M361.75,357.71H332.27a4.61,4.61,0,0,0-4.53,5.48L336.39,409h38.87l-9-47.49A4.62,4.62,0,0,0,361.75,357.71Z" style="fill:#263238;stroke:#263238;stroke-miterlimit:10"></path><path d="M381.7,339.2s15.91,30.13,18.15,35.75-.75,17.59-.75,18.34S402.47,409,402.47,409H343.9l0-42.94s-1.34-12.83.9-21.06S366,342.39,372,341.26,381.7,339.2,381.7,339.2Z" style="fill:#bfbfbf;stroke:#263238;stroke-miterlimit:10"></path><path d="M353.63,353.05s12.35,9.36,11.79,21.52-.19,34.44-.19,34.44" style="fill:none;stroke:#263238;stroke-miterlimit:10"></path><path d="M390.12,384.12s-12,11.23-15.9,12.72" style="fill:none;stroke:#263238;stroke-miterlimit:10"></path><line x1="386.19" y1="392.54" x2="377.02" y2="397.59" style="fill:none;stroke:#263238;stroke-miterlimit:10"></line><path d="M393.4,283.31s5.23,7.37,5.71,12.13.24,7.61,2.14,9.51,4.52,3.57,3.33,5.47a40.84,40.84,0,0,1-4.28,5s-3.33,11.41-5.23,13.08-6.66.23-7.62.23a13.59,13.59,0,0,1-2.14-.23l-4,14-16.65-14s-5.7-11.18-3.56-21.41,19-15.69,21.88-19,5.23-7.14,6.42-7.62S393.4,283.31,393.4,283.31Z" style="fill:#fff;stroke:#263238;stroke-miterlimit:10"></path><path d="M378.89,302.34s.19,5.05-1.49,6.36-5.62-2.81-5.62-2.81Z" style="fill:#263238;stroke:#263238;stroke-miterlimit:10"></path><path d="M395.54,279.74s.71,8.09-3.33,14.27-10.94,8.09-16.88,11.89S368.43,319,371,322.31s11.66,10.94,10.23,20.22-3.8,14.74-12.37,10-13.08-10.47-16.88-9-6.9,4-6.9,7.37-1.19,15.22-1.19,15.22a16.61,16.61,0,0,1-8.32-15.93c.95-11.18,12.6-20.45,14-30.44s-5.71-22.36,2.62-36.39S383.89,272.13,395.54,279.74Z" style="fill:#263238;stroke:#263238;stroke-miterlimit:10"></path><path d="M396.86,304.4c.07,1.29-.37,2.36-1,2.4s-1.18-1-1.25-2.28.37-2.36,1-2.4S396.79,303.11,396.86,304.4Z" style="fill:#263238"></path><path d="M392.93,301.4s.56-2.43,3.93-2.24" style="fill:none;stroke:#263238;stroke-miterlimit:10"></path><path d="M396.86,317.31s-2.06.75-4.49-1.31" style="fill:none;stroke:#263238;stroke-miterlimit:10"></path><path d="M369.91,317.87l3.37.75-2.06,2.43S369.16,321.43,369.91,317.87Z" style="fill:#263238;stroke:#263238;stroke-miterlimit:10"></path></g><g id="freepik--character-2--inject-4"><path d="M177,357.71H147.51a4.62,4.62,0,0,0-4.54,5.48L151.62,409H190.5l-9-47.49A4.61,4.61,0,0,0,177,357.71Z" style="fill:#263238;stroke:#263238;stroke-miterlimit:10"></path><path d="M178,322.66s-27.7,17.25-29.84,24.12S149.66,409,149.66,409h80s-15.58-59.61-19.49-66.19-7.82-11.73-12.85-14.78S178,322.66,178,322.66Z" style="fill:#919191;stroke:#263238;stroke-miterlimit:10"></path><path d="M175.73,341.8c4,9.69,6.19,14.78,6.19,14.78l7.28-2.15-3.47,5.62s2.22,2.44,8.43,6.15,14.87,11,14.87,11l1.25-15.36" style="fill:none;stroke:#263238;stroke-miterlimit:10"></path><path d="M171.62,332.16s.08,0,3.21,7.48" style="fill:none;stroke:#263238;stroke-miterlimit:10"></path><line x1="213.79" y1="391.06" x2="217.05" y2="399.98" style="fill:none;stroke:#263238;stroke-miterlimit:10"></line><line x1="209.97" y1="380.61" x2="211.96" y2="386.06" style="fill:none;stroke:#263238;stroke-miterlimit:10"></line><path d="M172,364.46c.19,1.34.31,2.21.31,2.21l4.41,38.6" style="fill:none;stroke:#263238;stroke-miterlimit:10"></path><path d="M158.76,341.2s10.34,7.68,11.43,12.66c.57,2.6,1.12,6,1.52,8.63" style="fill:none;stroke:#263238;stroke-miterlimit:10"></path><path d="M178,322.66s-1.2,1.27-3.09,3.32c1.9,2.79,7,9.93,10.67,15.26,4.38,6.41,21.29,31,21.29,31s.61-26.81-1.77-35.67c-.15-.55-.31-1.07-.49-1.59-2.32-2.71-4.55-5.27-7.29-6.93C192.32,325,178,322.66,178,322.66Z" style="fill:#fff;stroke:#263238;stroke-miterlimit:10"></path><path d="M206.68,360.5l-2-2.15,1.74-8.4-8.23-3.41-2.67,8.56,6,3.6-1.86,2.47a126.74,126.74,0,0,0,7.22,11.06S206.83,369.18,206.68,360.5Z" style="fill:#263238;stroke:#263238;stroke-miterlimit:10"></path><path d="M206.45,350c-.22-2.55-.86-11.66-1.32-13.39-.15-.55-.31-1.07-.49-1.59-2.32-2.71-4.55-5.27-7.29-6.93-5-3.05-19.32-5.38-19.32-5.38a9.9,9.9,0,0,0-4.21,2.68c1.9,2.79,8.14,10.57,11.79,15.9,1.15,1.69,7.65,10.41,9.94,13.47l2.67-8.17Z" style="fill:#fff;stroke:#263238;stroke-miterlimit:10"></path><path d="M182.48,276.78s-11.43,8.78-14.14,17.5,3.8,19.46,6.38,21.74a11.72,11.72,0,0,1,3.33,4.56l-.9,2.76,21.07,23.2,4-18.31s7.27.87,9.22-.74,2.68-5.06,3-6.21,2.21-8,2.21-8,3-2.77,3.29-4.14-3.85-9.84-3.85-9.84,3.08-4.37,2.52-6-4.27-10.29-6.39-12.57a18.69,18.69,0,0,0-3.66-3.19,8.71,8.71,0,0,0-5.21-3.86C199.52,272.55,187.13,272.85,182.48,276.78Z" style="fill:#fff;stroke:#263238;stroke-miterlimit:10"></path><path d="M203.33,273.67c-3.81-1.12-16.2-.82-20.85,3.11,0,0-11.43,8.78-14.14,17.5s3.8,19.46,6.38,21.74a11.72,11.72,0,0,1,3.33,4.56c1.3.91,7.51-6.26,7.51-6.26a24.76,24.76,0,0,1-3.94-3.42c-2.46-2.65-.36-7.94,2.46-8.87s2.47,2.92,3.5,4.51,4.09.44,5.73,0,.43-2.75.38-5.05,2.77-6.43,3.95-9.88-3.52-5-8.2-6.82-.81-1.37,5.14-4.39,14-2.84,14-2.84A8.71,8.71,0,0,0,203.33,273.67Z" style="fill:#263238;stroke:#263238;stroke-miterlimit:10"></path><path d="M217.34,297.65s-8.9-.4-10.14.75-.46,6.19,1.48,7.78,3.81,1.13,5.71.2S217.34,297.65,217.34,297.65Z" style="fill:none;stroke:#263238;stroke-miterlimit:10"></path><path d="M217.34,297.65s2.88-.44,3.67.08-1.27,5.86-2.13,6.18-1.82-3.65-1.82-3.65Z" style="fill:none;stroke:#263238;stroke-miterlimit:10"></path><line x1="207.2" y1="298.4" x2="186.09" y2="303.22" style="fill:none;stroke:#263238;stroke-miterlimit:10"></line><path d="M215.12,296.14a5,5,0,0,0-3.56-.58,11.72,11.72,0,0,0-4,1.23" style="fill:none;stroke:#263238;stroke-miterlimit:10"></path><path d="M212.49,315.21a6,6,0,0,1-4.78-2.37" style="fill:none;stroke:#263238;stroke-miterlimit:10"></path><path d="M212.58,302c-.08,1-.64,1.8-1.26,1.8s-1.07-.8-1-1.79.64-1.8,1.26-1.81S212.65,301,212.58,302Z" style="fill:#263238"></path><polygon points="202.22 328.23 195.9 326.41 199.97 338.27 202.22 328.23" style="fill:#263238;stroke:#263238;stroke-miterlimit:10"></polygon></g><g id="freepik--character-1--inject-4"><path d="M101,357.71H71.48a4.63,4.63,0,0,0-4.54,5.48L75.59,409h38.88l-9-47.49A4.63,4.63,0,0,0,101,357.71Z" style="fill:#263238;stroke:#263238;stroke-miterlimit:10"></path><polygon points="135.07 371.16 147.44 408.89 140.51 408.89 132.81 379.89 135.07 371.16" style="fill:#fff;stroke:#263238;stroke-miterlimit:10"></polygon><polygon points="135.07 371.16 132.81 379.89 136.36 393.27 136.8 393.22 141.74 391.5 135.07 371.16" style="fill:#C53F3F;stroke:#263238;stroke-miterlimit:10"></polygon><path d="M98.05,327s-11.42,1.93-14.73,3.85S65,346.27,65,346.27s-10.63,10.53-12.09,14,5.83,10,9,10.85,15.93-3.94,15.93-3.94l7.12,18.59-4,23.29h62.42l-8-31.2s1.11-9,.81-11.53-4-14.11-4.14-14.75-1.36-13.54-4.33-18S106.91,325,106.91,325Z" style="fill:#C53F3F;stroke:#263238;stroke-miterlimit:10"></path><line x1="77.8" y1="367.13" x2="85.74" y2="364.35" style="fill:none;stroke:#263238;stroke-miterlimit:10"></line><line x1="124.64" y1="376.5" x2="107.31" y2="391.75" style="fill:none;stroke:#263238;stroke-miterlimit:10"></line><line x1="108.12" y1="386.06" x2="101.58" y2="392.52" style="fill:none;stroke:#263238;stroke-miterlimit:10"></line><path d="M59.4,289.75a46.81,46.81,0,0,1,1.85-6.83c1-2.35,1.16-6,2.17-4.7a8,8,0,0,1,1.21,5.34,35.38,35.38,0,0,1-.92,5.34Z" style="fill:#fff;stroke:#263238;stroke-miterlimit:10"></path><polygon points="66.06 303.64 63.69 303.64 65.54 268.04 67.92 268.04 66.06 303.64" style="fill:#fff;stroke:#263238;stroke-miterlimit:10"></polygon><ellipse cx="67.16" cy="245.77" rx="24.52" ry="16.66" transform="translate(-183.95 288.85) rotate(-84.45)" style="fill:#C53F3F;stroke:#263238;stroke-miterlimit:10"></ellipse><path d="M67.81,259.21a5.48,5.48,0,0,1-3.49-1.31,6.35,6.35,0,0,1-1.85-3.1,13.08,13.08,0,0,1-.4-4.23l.47-8.51a16.77,16.77,0,0,1,.81-4.46,6.59,6.59,0,0,1,2.1-3.13,5.37,5.37,0,0,1,3.79-1,7,7,0,0,1,3.28.9,4.94,4.94,0,0,1,2,2.21,7.22,7.22,0,0,1,.57,3.37,1.28,1.28,0,0,0,0,.18.67.67,0,0,1,0,.2l-3.36-.19a5.42,5.42,0,0,0-.44-2.84,2.43,2.43,0,0,0-2.19-1.09,2.31,2.31,0,0,0-1.59.49,3.51,3.51,0,0,0-1.08,1.71,11.91,11.91,0,0,0-.5,3l-.21,3.83a3.6,3.6,0,0,1,1.49-1.18,4.79,4.79,0,0,1,2.29-.36,5.35,5.35,0,0,1,3.22,1.08,4.93,4.93,0,0,1,1.54,2.64,14.7,14.7,0,0,1-.57,8,6.31,6.31,0,0,1-2.16,2.86A5.66,5.66,0,0,1,67.81,259.21Zm.15-2.78a2.37,2.37,0,0,0,1.79-.54,3.64,3.64,0,0,0,1-1.65,9.44,9.44,0,0,0,.39-2.29,26,26,0,0,0,0-2.78,4.13,4.13,0,0,0-.62-2.09,2.42,2.42,0,0,0-2-.87,2.93,2.93,0,0,0-1.26.18,3.41,3.41,0,0,0-1,.58,3.93,3.93,0,0,0-.7.79l-.21,3.78a10.22,10.22,0,0,0,.13,2.38,3.62,3.62,0,0,0,.8,1.78A2.27,2.27,0,0,0,68,256.43Z" style="fill:#263238"></path><path d="M66.52,308.77s5.1,49.78,4.34,52.13-6.72,11.15-10.6,11.35c-5.18.26-7.78-7.08-8.72-9.64s6-53.63,6-53.63l.31-14.1s1.06-4.06,1.55-5.13,7.83-6.83,8.5-7.48,2.76.43,3.11,1.93-1.71,4.06-1.71,4.06S71.37,297.87,71,300,66.52,308.77,66.52,308.77Z" style="fill:#fff;stroke:#263238;stroke-miterlimit:10"></path><path d="M69.24,336.76l-15.47,1.5c-1.44,11.91-2.65,23.18-2.23,24.35.94,2.56,3.54,9.9,8.72,9.64,3.88-.2,9.84-9,10.6-11.35C71.21,359.81,70.31,348.54,69.24,336.76Z" style="fill:#C53F3F;stroke:#263238;stroke-miterlimit:10"></path><path d="M124.32,278s3.52,6.2,3.53,10.05-.51,5.76-.37,7.26,4.4,5.77,4.55,6.84-3.84,4.06-3.84,4.06-3.26,9.18-4.47,12-5.46,2.35-9.27,1.71c0,0,.59,13.25.89,15.6s.38,9.19.38,9.19a18.94,18.94,0,0,1-10.79-6.2c-5.05-5.56-8-9.61-8-9.61s.51-9.83.22-12.61-6.06-14.74-9.33-17.73,1.81-14.11,11.8-21.37S124.32,278,124.32,278Z" style="fill:#fff;stroke:#263238;stroke-miterlimit:10"></path><polygon points="114.44 319.91 108.38 318.78 114.42 328.02 114.44 319.91" style="fill:#263238;stroke:#263238;stroke-miterlimit:10"></polygon><path d="M128,277.61s-1.8,1.71-5,4.91-9,7.69-9.77,7.05.39-3.42.39-3.42a38.85,38.85,0,0,1-4.73,4.7c-2,1.5-5.93,3-5.57,4.28s2,2.13.92,3a6.15,6.15,0,0,1-4.33,1.07c-1.49-.22-2.56,4.06-1.75,4.91s2.3.86,1.69,4.49,0,8.12-2.76,7.69a11.35,11.35,0,0,1-7.79-6.2,41.43,41.43,0,0,1-1.86-5.34s-5.5,3-8.07-5.13,1.68-19.87,9.48-26.06,17.91-11.54,33-6.63S128,277.61,128,277.61Z" style="fill:#263238;stroke:#263238;stroke-miterlimit:10"></path><path d="M124.61,297.05c-.07,1.3-.65,2.35-1.3,2.35s-1.12-1-1-2.35.65-2.35,1.3-2.35S124.68,295.75,124.61,297.05Z" style="fill:#263238"></path><path d="M124.22,308.59s-3.27,1.28-5.22-2.35" style="fill:none;stroke:#263238;stroke-miterlimit:10"></path><path d="M121.17,293.42a3.7,3.7,0,0,1,4.76-1.28" style="fill:none;stroke:#263238;stroke-miterlimit:10"></path><path d="M101.33,300.9s-2.87-6.41-5.74-4.49-.45,8.55,1.82,10,5.74.64,5.74.64" style="fill:#fff;stroke:#263238;stroke-miterlimit:10"></path></g><g id="freepik--Line--inject-4"><line x1="25.93" y1="409.01" x2="727.13" y2="409.01" style="fill:none;stroke:#263238;stroke-miterlimit:10"></line></g></svg>
