<svg xmlns="http://www.w3.org/2000/svg" viewBox="0 0 500 500"><g id="freepik--background-complete--inject-19"><rect y="382.4" width="500" height="0.25" style="fill:#ebebeb"></rect><rect x="416.78" y="398.49" width="33.12" height="0.25" style="fill:#ebebeb"></rect><rect x="322.53" y="401.21" width="8.69" height="0.25" style="fill:#ebebeb"></rect><rect x="396.59" y="389.21" width="19.19" height="0.25" style="fill:#ebebeb"></rect><rect x="52.46" y="390.89" width="43.19" height="0.25" style="fill:#ebebeb"></rect><rect x="104.56" y="390.89" width="6.33" height="0.25" style="fill:#ebebeb"></rect><rect x="131.47" y="395.11" width="93.68" height="0.25" style="fill:#ebebeb"></rect><path d="M237,337.8H43.91a5.71,5.71,0,0,1-5.7-5.71V60.66A5.71,5.71,0,0,1,43.91,55H237a5.71,5.71,0,0,1,5.71,5.71V332.09A5.71,5.71,0,0,1,237,337.8ZM43.91,55.2a5.46,5.46,0,0,0-5.45,5.46V332.09a5.46,5.46,0,0,0,5.45,5.46H237a5.47,5.47,0,0,0,5.46-5.46V60.66A5.47,5.47,0,0,0,237,55.2Z" style="fill:#ebebeb"></path><path d="M453.31,337.8H260.21a5.72,5.72,0,0,1-5.71-5.71V60.66A5.72,5.72,0,0,1,260.21,55h193.1A5.71,5.71,0,0,1,459,60.66V332.09A5.71,5.71,0,0,1,453.31,337.8ZM260.21,55.2a5.47,5.47,0,0,0-5.46,5.46V332.09a5.47,5.47,0,0,0,5.46,5.46h193.1a5.47,5.47,0,0,0,5.46-5.46V60.66a5.47,5.47,0,0,0-5.46-5.46Z" style="fill:#ebebeb"></path><rect x="168.8" y="130.59" width="89.3" height="69.1" transform="translate(378.6 -48.31) rotate(90)" style="fill:#e0e0e0"></rect><rect x="181.9" y="123.5" width="63.1" height="83.3" style="fill:#f5f5f5"></rect><polygon points="203.36 132.36 203.36 168.98 217.95 168.16 219.63 132.36 203.36 132.36" style="fill:#ebebeb"></polygon><polygon points="215.17 139.44 237.62 139.44 237.42 171.5 225.8 171.68 215.17 139.44" style="fill:#e0e0e0"></polygon><polygon points="193.32 134.72 199.23 134.72 197.16 163.32 189.78 165.15 193.32 134.72" style="fill:#e6e6e6"></polygon><rect x="340.34" y="146.06" width="89.3" height="69.1" transform="translate(565.6 -204.37) rotate(90)" style="fill:#e0e0e0"></rect><rect x="353.43" y="138.97" width="63.1" height="83.3" style="fill:#f5f5f5"></rect><polygon points="375.86 139.44 360.69 172.89 377.8 172.89 372.67 189.06 381.36 190.49 373.18 197.38 382.57 202.69 377.8 222.63 416.54 222.26 416.54 138.97 375.86 139.44" style="fill:#ebebeb"></polygon><path d="M385.59,161.81s9.46-11.34,23.61,0C409.2,161.81,397.68,173.42,385.59,161.81Z" style="fill:#f5f5f5"></path><circle cx="397.77" cy="155.12" r="6.75" style="fill:#e0e0e0"></circle><polygon points="372.67 189.06 379.61 182.65 396.88 190.49 384.78 200.53 373.18 197.38 381.36 190.49 372.67 189.06" style="fill:#e0e0e0"></polygon><polygon points="401.11 171.68 404.53 179.66 399.2 179.66 401.11 171.68" style="fill:#f5f5f5"></polygon><polygon points="401.49 185.08 404.91 193.05 399.58 193.05 401.49 185.08" style="fill:#f5f5f5"></polygon><rect x="79.9" y="159.12" width="82.55" height="68.91" transform="translate(314.75 72.41) rotate(90)" style="fill:#e0e0e0"></rect><rect x="89.72" y="155.3" width="62.91" height="76.55" transform="translate(242.34 387.15) rotate(180)" style="fill:#e6e6e6"></rect><polygon points="104.11 212.89 137.17 180.4 101.4 174.5 104.11 212.89" style="fill:#e0e0e0"></polygon><polygon points="136.37 205.19 138.01 180.27 113.12 186.39 111.31 205.45 136.37 205.19" style="fill:#f0f0f0"></polygon><circle cx="103.81" cy="170.13" r="10.05" transform="translate(-89.89 123.23) rotate(-45)" style="fill:#fafafa"></circle><path d="M133.12,214.07a4.88,4.88,0,1,1,4.87,4.87A4.87,4.87,0,0,1,133.12,214.07Z" style="fill:#e0e0e0"></path><polygon points="136.84 222.64 122.76 214.07 134.59 204.32 136.84 222.64" style="fill:#f5f5f5"></polygon><rect x="117.45" y="165.04" width="2.77" height="61.12" style="fill:#e0e0e0"></rect><rect x="143.14" y="165.04" width="3.58" height="58.42" style="fill:#ebebeb"></rect><rect x="96.03" y="205.45" width="18.28" height="18.28" style="fill:#ebebeb"></rect></g><g id="freepik--Shadow--inject-19"><ellipse id="freepik--path--inject-19" cx="250" cy="416.24" rx="193.89" ry="11.32" style="fill:#f5f5f5"></ellipse></g><g id="freepik--Vase--inject-19"><rect x="279.02" y="268.84" width="41.3" height="147.11" style="fill:#263238"></rect><rect x="279.02" y="268.84" width="41.3" height="147.12" style="fill:#fafafa;opacity:0.6000000000000001"></rect><rect x="305.8" y="268.84" width="14.52" height="147.12" style="opacity:0.1"></rect><polygon points="306.28 216.17 306.28 197.37 313.29 187.5 300.06 187.5 299.27 187.5 286.05 187.5 293.06 197.37 293.06 216.17 277.65 236.35 277.65 251.54 288.86 269.89 299.27 269.89 300.06 269.89 310.48 269.89 321.69 251.54 321.69 236.35 306.28 216.17" style="fill:#C53F3F"></polygon><polygon points="306.28 216.17 306.28 197.37 313.29 187.5 300.06 187.5 299.27 187.5 286.05 187.5 293.06 197.37 293.06 216.17 277.65 236.35 277.65 251.54 288.86 269.89 299.27 269.89 300.06 269.89 310.48 269.89 321.69 251.54 321.69 236.35 306.28 216.17" style="fill:#fafafa;opacity:0.6000000000000001"></polygon><polygon points="286.05 187.5 299.27 187.5 293.06 197.37 286.05 187.5" style="fill:#fafafa;opacity:0.4"></polygon><polygon points="313.28 187.5 306.28 197.37 299.27 187.5 313.28 187.5" style="fill:#fafafa;opacity:0.4"></polygon><polygon points="306.28 216.17 299.67 223.24 293.05 216.17 306.28 216.17" style="fill:#fafafa;opacity:0.4"></polygon><polygon points="288.85 269.88 299.67 261.8 310.47 269.88 288.85 269.88" style="fill:#fafafa;opacity:0.4"></polygon><polygon points="311.93 251.54 311.84 252.72 311.84 252.73 299.67 261.8 287.49 252.72 287.4 251.54 311.93 251.54" style="fill:#fafafa;opacity:0.4"></polygon><polygon points="311.93 236.33 311.93 236.35 287.4 236.35 299.67 223.24 311.93 236.33" style="fill:#fafafa;opacity:0.4"></polygon><polygon points="311.94 236.35 311.93 236.34 311.93 236.33 311.94 236.35" style="fill:#fafafa;opacity:0.4"></polygon><polyline points="277.65 236.35 287.4 236.35 287.4 251.54 277.65 251.54 277.65 237.44" style="fill:#fafafa;opacity:0.4"></polyline><polyline points="321.69 236.35 311.94 236.35 311.94 251.54 321.69 251.54 321.69 237.44" style="fill:#fafafa;opacity:0.4"></polyline><polygon points="293.06 216.17 306.28 197.37 293.06 197.37 306.29 216.17 293.06 216.17" style="fill:#fafafa;opacity:0.4"></polygon><polygon points="299.67 223.24 287.4 236.35 293.06 216.17 299.67 223.24" style="fill:#fafafa;opacity:0.7000000000000001"></polygon><polygon points="311.94 236.35 299.67 223.24 306.29 216.17 311.94 236.35" style="fill:#fafafa;opacity:0.7000000000000001"></polygon><polygon points="299.67 261.81 288.86 269.88 287.4 252.65 299.67 261.81" style="fill:#fafafa;opacity:0.7000000000000001"></polygon><polygon points="311.94 252.65 310.47 269.88 299.67 261.81 311.94 252.65" style="fill:#fafafa;opacity:0.7000000000000001"></polygon><rect x="287.4" y="236.35" width="24.53" height="15.19" style="fill:#fafafa;opacity:0.7000000000000001"></rect><polygon points="293.06 197.37 306.28 197.37 299.27 187.5 293.06 197.37" style="fill:#fafafa;opacity:0.7000000000000001"></polygon><rect x="277.48" y="268.84" width="44.39" height="3.84" style="fill:#263238"></rect><rect x="277.48" y="268.84" width="44.39" height="3.84" style="fill:#fafafa;opacity:0.4"></rect><rect x="306.29" y="268.84" width="15.58" height="3.84" style="opacity:0.1"></rect></g><g id="freepik--character-3--inject-19"><path d="M389.68,198.56c9.44,1.94,14.18,10.42,12.07,17.13-2,6.35-5.65,3.82-6.54,12.95l-13.85-.95c.58-3.94-4.07-8-5.5-13.66-1-3.89,0-9.9,3.57-11.34Z" style="fill:#263238"></path><path d="M370.75,276.9s-1.57,36.67.81,59.68c.23,21.74,2.74,67.2.7,72.31.18,1.1,4.06,1,5,.26,0,0,13-38.84,7.79-73.73,11.71-37.85,8.88-60.5,8.88-60.5Z" style="fill:#eec1bb"></path><path d="M377.27,276.1s10.65,41.09,14.86,61.27c4.43,21.19,10.27,56.81,9,70.89,1.19.7,3.39.78,5.78,0,0,0,9.5-47.31-.06-70,4.2-50.19-9.08-62.2-9.08-62.2Z" style="fill:#eec1bb"></path><path d="M407.87,415.67h-1.2l-.33-1.49-4,1.79-10.08,0s-1.6-1.62,3.21-2.88a4.47,4.47,0,0,0,.68-.26c2.56-1.19,6.22-5.24,6.22-5.24l5.53,0a5.91,5.91,0,0,1,.45.8C409,409.58,410,412.14,407.87,415.67Z" style="fill:#263238"></path><path d="M408.36,408.36v0c-.72-.82-4.06,2.75-6.5,4-2.18,1.07-4.62,1.54-5.7.44,2.56-1.19,6.61-6.42,6.61-6.42h4.45S408.11,407.84,408.36,408.36Z" style="fill:#eec1bb"></path><path d="M378.85,415.67h-1.21l-.32-1.49-4,1.79-10.08,0s-1.6-1.62,3.21-2.88a4.47,4.47,0,0,0,.68-.26c2.56-1.19,6.22-5.24,6.22-5.24l5.53,0a5.91,5.91,0,0,1,.45.8A7.06,7.06,0,0,1,378.85,415.67Z" style="fill:#263238"></path><path d="M379.34,408.36v0c-.72-.82-4.06,2.75-6.5,4-2.18,1.07-4.62,1.54-5.7.44,2.56-1.19,6.61-6.42,6.61-6.42h4.45S379.09,407.84,379.34,408.36Z" style="fill:#eec1bb"></path><path d="M408.71,319.67a9.11,9.11,0,0,1-2.47,1.54,10,10,0,0,0-1.46-5.46,14.7,14.7,0,0,1-.73,6.32c-7.1,2.41-20.8,4-37.91.64,0-13.4,2.75-34.42,3.82-42.63.22-1.66.38-2.8.42-3.24,0,0,20.31.42,28.55.42a13.07,13.07,0,0,1,1.17,1.28C408.17,288.35,410.31,313.87,408.71,319.67Z" style="fill:#263238"></path><path d="M400.1,278.54c-6,4-18.61,8.48-18.61,8.48l-4.22-6.53-3.49,5.61-3.82-6c.22-1.66.38-2.8.42-3.24,0,0,20.31.42,28.55.42A13.07,13.07,0,0,1,400.1,278.54Z" style="opacity:0.30000000000000004"></path><path d="M330.89,245.82,323,243.13l3.42-6.43s5.77,1.11,6.65,5.88Z" style="fill:#ffc3bd"></path><polygon points="318.81 237.88 322.65 234.63 326.43 236.7 323.01 243.13 318.81 237.88" style="fill:#ffc3bd"></polygon><path d="M373.91,246.31c-1,.61-1.73,1-2.61,1.51s-1.7.87-2.55,1.3c-1.72.82-3.44,1.58-5.2,2.28s-3.52,1.32-5.3,1.93c-.88.29-1.77.59-2.68.85l-1.34.4-.34.1-.52.13a8.13,8.13,0,0,1-1.1.21,12.64,12.64,0,0,1-3.74-.13,22,22,0,0,1-3.13-.77,38.29,38.29,0,0,1-5.45-2.31,57.18,57.18,0,0,1-9.4-5.6l2.38-4.64h0l.07,0c3.2,1.42,6.11,3.33,9.35,4.45a39.69,39.69,0,0,0,4.82,1.33,10,10,0,0,0,3.9.2,1.46,1.46,0,0,0,.24-.07l.13-.05.3-.13,1.24-.49,2.44-1q2.44-1,4.83-2.11c1.6-.74,3.18-1.47,4.73-2.25.77-.38,1.55-.77,2.31-1.17l2.14-1.16.19-.11a4.2,4.2,0,0,1,4.25,7.24Z" style="fill:#C53F3F"></path><path d="M373.91,246.31c-1,.61-1.73,1-2.61,1.51s-1.7.87-2.55,1.3c-1.72.82-3.44,1.58-5.2,2.28s-3.52,1.32-5.3,1.93c-.88.29-1.77.59-2.68.85l-1.34.4-.34.1-.52.13a8.13,8.13,0,0,1-1.1.21,12.64,12.64,0,0,1-3.74-.13,22,22,0,0,1-3.13-.77,38.29,38.29,0,0,1-5.45-2.31,57.18,57.18,0,0,1-9.4-5.6l2.38-4.64h0l.07,0c3.2,1.42,6.11,3.33,9.35,4.45a39.69,39.69,0,0,0,4.82,1.33,10,10,0,0,0,3.9.2,1.46,1.46,0,0,0,.24-.07l.13-.05.3-.13,1.24-.49,2.44-1q2.44-1,4.83-2.11c1.6-.74,3.18-1.47,4.73-2.25.77-.38,1.55-.77,2.31-1.17l2.14-1.16.19-.11a4.2,4.2,0,0,1,4.25,7.24Z" style="fill:#fff;opacity:0.7000000000000001"></path><path d="M374.39,247.08c-.61.38-1.15.71-1.75,1-.29.17-.59.33-.92.5-.86.46-1.71.88-2.56,1.31-1.38.65-2.68,1.23-3.93,1.76l-1.35.55c-1.75.71-3.52,1.32-5.34,1.95l-.47.15c-.74.25-1.48.49-2.24.71l-1.68.5-.55.14a8.75,8.75,0,0,1-1.24.23,11.84,11.84,0,0,1-1.47.09,16.4,16.4,0,0,1-2.51-.22,24.53,24.53,0,0,1-3.25-.8,40.43,40.43,0,0,1-5.59-2.37A59.61,59.61,0,0,1,332,248c.14-.34.25-.67.39-1,.7-1.68,1.45-3.32,2.08-5,3,1.3,5.75,2.39,8.24,3.25a36.47,36.47,0,0,0,4.7,1.3,12.5,12.5,0,0,0,2.54.3,3.69,3.69,0,0,0,1-.09l.09,0,.19-.07.27-.11,1.24-.5,2.44-1c1.89-.79,3.42-1.46,4.8-2.09,1.76-.82,3.24-1.5,4.7-2.23.77-.38,1.54-.77,2.28-1.16l2.33-1.27a5.11,5.11,0,0,1,5.16,8.81Z" style="fill:#263238"></path><path d="M372.64,248.12c-.29.17-.59.33-.92.5-.86.46-1.71.88-2.56,1.31-1.38.65-2.68,1.23-3.93,1.76a33.25,33.25,0,0,1,5-11.15A9.51,9.51,0,0,1,372.64,248.12Z" style="opacity:0.30000000000000004"></path><path d="M404.79,238.41a97.49,97.49,0,0,0-3.68,14.53c-.32,1.72-.63,3.57-.9,5.53-.11.77-.22,1.56-.31,2.37-.47,3.77-.81,7.92-.92,12.35,0,1.34-.06,2.69-.05,4.07l-15.84,4.91-5.95-4.05-3.36,3-3.4-4.29s-3.95-20.06-1.26-38.43A37.74,37.74,0,0,1,404.79,238.41Z" style="fill:#263238"></path><path d="M373.18,239.93a16.08,16.08,0,0,1,13.52-8.15c9.67-.36,9.4,9.37,9.4,9.37h-5.47l1.53,3.27s-8.08,5.47-12,12.82l1.22-6.14-6.86-6.6,2.77-3.35Z" style="fill:#263238"></path><path d="M373.18,239.93a16.08,16.08,0,0,1,13.52-8.15c9.67-.36,9.4,9.37,9.4,9.37h-5.47l1.53,3.27s-8.08,5.47-12,12.82l1.22-6.14-6.86-6.6,2.77-3.35Z" style="fill:#fff;opacity:0.2"></path><path d="M379.51,234.85a33.21,33.21,0,0,0,2,15.13s5.47-10.53,10.61-15.13C392.16,234.85,386.93,229.18,379.51,234.85Z" style="fill:#C53F3F"></path><path d="M379.51,234.85a33.21,33.21,0,0,0,2,15.13s5.47-10.53,10.61-15.13C392.16,234.85,386.93,229.18,379.51,234.85Z" style="fill:#fff;opacity:0.5"></path><path d="M375.69,236.29s6-4.44,7.39-5,3.41,1.3,3.41,1.3,5.54-1.4,6.95-1.3,4.27,5,4.27,5l-6.81-.9a21.89,21.89,0,0,0-8.65,9s-2.71-6.37-2.73-9Z" style="fill:#C53F3F"></path><path d="M375.69,236.29s6-4.44,7.39-5,3.41,1.3,3.41,1.3,5.54-1.4,6.95-1.3,4.27,5,4.27,5l-6.81-.9a21.89,21.89,0,0,0-8.65,9s-2.71-6.37-2.73-9Z" style="fill:#fff;opacity:0.7000000000000001"></path><path d="M393.25,218.84c-1.1,4.06-2.45,11.5.19,14.2a19,19,0,0,0-11.19,10.75,58.59,58.59,0,0,1-1.43-10.74c4.61-1.09,4.74-4.45,4.19-7.6Z" style="fill:#eec1bb"></path><path d="M389.89,221.53,385,225.45a13.08,13.08,0,0,1,.22,2.24c1.75-.25,4.27-2.15,4.59-4A6.22,6.22,0,0,0,389.89,221.53Z" style="opacity:0.2"></path><path d="M396.71,210.69c-1.23,6.55-1.61,9.35-5.35,12.49-5.63,4.73-13.36,2.23-14.1-4.46-.67-6,1.46-15.72,8.22-17.89A8.55,8.55,0,0,1,396.71,210.69Z" style="fill:#eec1bb"></path><path d="M391.08,206c3.61,4.67-3.82,10,3.61,9.73s4.42-10.81,0-13.19S391.08,206,391.08,206Z" style="fill:#263238"></path><path d="M386.33,211.78c-.08.55-.43,1-.79,1s-.58-.5-.5-1.06.43-1,.79-1S386.41,211.22,386.33,211.78Z" style="fill:#263238"></path><path d="M379.63,211.38c-.08.56-.43,1-.79,1s-.57-.5-.5-1.05.44-1,.79-1S379.71,210.83,379.63,211.38Z" style="fill:#263238"></path><path d="M379.28,210.37l-1.25-.48S378.55,211,379.28,210.37Z" style="fill:#263238"></path><path d="M381.36,212.43a16.42,16.42,0,0,1-2.44,3.4,2.2,2.2,0,0,0,1.88.51Z" style="fill:#d4827d"></path><path d="M383.63,218.62a5.55,5.55,0,0,1-.92,0,.16.16,0,0,1-.14-.18.18.18,0,0,1,.19-.15,4.61,4.61,0,0,0,3.75-1.46.17.17,0,0,1,.23,0,.16.16,0,0,1,0,.23A4.86,4.86,0,0,1,383.63,218.62Z" style="fill:#263238"></path><path d="M397.35,217a4.58,4.58,0,0,1-2.79,2.44c-1.52.41-2.19-1.34-1.68-3.09.46-1.57,1.8-3.68,3.3-3.3S398.12,215.47,397.35,217Z" style="fill:#eec1bb"></path><path d="M388.2,208.8a.29.29,0,0,1-.23-.1,2.42,2.42,0,0,0-2.12-.82.29.29,0,0,1-.36-.25.36.36,0,0,1,.28-.39,3,3,0,0,1,2.69,1,.35.35,0,0,1-.26.56Z" style="fill:#263238"></path><path d="M378.13,208.2a.35.35,0,0,1-.23-.07.33.33,0,0,1,0-.46,3.42,3.42,0,0,1,2.77-1.24.29.29,0,0,1,.26.36.35.35,0,0,1-.37.29,2.7,2.7,0,0,0-2.19,1A.37.37,0,0,1,378.13,208.2Z" style="fill:#263238"></path><path d="M386,210.77l-1.25-.48S385.25,211.38,386,210.77Z" style="fill:#263238"></path><path d="M392.16,207.06s-4.16-1.33-3.74-5.14c0,0-1.62.31-.42,3.81,0,0-4.82-2-9.34-1.24,0,0-1.68-4.47,6-5.91s11.55,3.47,11.46,5.74S392.16,207.06,392.16,207.06Z" style="fill:#263238"></path><path d="M399.9,260.84c-.47,3.77-.81,7.92-.92,12.35-4.25-1.63-13.28-5.93-12-12.46C387,260.73,390,261.37,399.9,260.84Z" style="opacity:0.30000000000000004"></path><path d="M401.11,252.94c-.32,1.72-.63,3.57-.9,5.53a16.27,16.27,0,0,1-2-9.93Z" style="opacity:0.30000000000000004"></path><path d="M385.22,265h0a1.25,1.25,0,0,1-1.76,0l-15.1-15.45a1.25,1.25,0,0,1,0-1.76h0a1.25,1.25,0,0,1,1.76,0l15.1,15.46A1.23,1.23,0,0,1,385.22,265Z" style="fill:#C53F3F"></path><rect x="366.46" y="247.79" width="8.7" height="4.89" transform="translate(-69.31 330.31) rotate(-44.32)" style="fill:#C53F3F"></rect><rect x="366.46" y="247.79" width="8.7" height="4.89" transform="translate(-69.31 330.31) rotate(-44.32)" style="fill:#fff;opacity:0.7000000000000001"></rect><rect x="367.24" y="250.42" width="0.99" height="5.64" transform="translate(-72.29 329.02) rotate(-44.32)" style="fill:#C53F3F"></rect><rect x="373.39" y="244.42" width="0.99" height="5.64" transform="translate(-66.33 331.67) rotate(-44.33)" style="fill:#C53F3F"></rect><rect x="367.24" y="250.42" width="0.99" height="5.64" transform="translate(-72.29 329.02) rotate(-44.32)" style="fill:#fff;opacity:0.5"></rect><rect x="373.39" y="244.42" width="0.99" height="5.64" transform="translate(-66.33 331.67) rotate(-44.33)" style="fill:#fff;opacity:0.5"></rect><path d="M381.53,259.25l2-.62a2.43,2.43,0,0,1,2.18.39l2.9,2.21a4.48,4.48,0,0,1,1.77,3.72l0,.91c-3.22,1.24-7.61.21-7.61.21l-1.28-.15a2,2,0,0,1-1.82-2.2l.27-2.55A2.32,2.32,0,0,1,381.53,259.25Z" style="fill:#eec1bb"></path><path d="M402.43,269.19c-1.14,0-2.22-.09-3.14-.17a48.66,48.66,0,0,1-5.25-.87c-1.87-.44-3.44-.84-5.07-1.39l-.37-.12.94-4.85,1.57,0c1.1,0,2.22.07,3.32.07h1c1.58,0,2.85,0,4-.11a21.85,21.85,0,0,0,3.85-.51c-.7-2.48-1.57-5.1-2.65-8-.54-1.44-1.2-3.15-1.91-4.9-.5-1.26-1-2.53-1.57-3.75l-.63-1.47,8.4-4,.2.41c.86,1.75,1.53,3.38,2.24,5.12l.06.15c.74,1.88,1.37,3.63,1.93,5.37a73.76,73.76,0,0,1,2.77,11.23l0,.2a3.89,3.89,0,0,1,.05.68,6.47,6.47,0,0,1-1.13,3.44,6.75,6.75,0,0,1-2.27,2,10.79,10.79,0,0,1-3.73,1.18A19.56,19.56,0,0,1,402.43,269.19Z" style="fill:#C53F3F"></path><path d="M402.43,269.19c-1.14,0-2.22-.09-3.14-.17a48.66,48.66,0,0,1-5.25-.87c-1.87-.44-3.44-.84-5.07-1.39l-.37-.12.94-4.85,1.57,0c1.1,0,2.22.07,3.32.07h1c1.58,0,2.85,0,4-.11a21.85,21.85,0,0,0,3.85-.51c-.7-2.48-1.57-5.1-2.65-8-.54-1.44-1.2-3.15-1.91-4.9-.5-1.26-1-2.53-1.57-3.75l-.63-1.47,8.4-4,.2.41c.86,1.75,1.53,3.38,2.24,5.12l.06.15c.74,1.88,1.37,3.63,1.93,5.37a73.76,73.76,0,0,1,2.77,11.23l0,.2a3.89,3.89,0,0,1,.05.68,6.47,6.47,0,0,1-1.13,3.44,6.75,6.75,0,0,1-2.27,2,10.79,10.79,0,0,1-3.73,1.18A19.56,19.56,0,0,1,402.43,269.19Z" style="fill:#fff;opacity:0.7000000000000001"></path><path d="M412.64,261.59l0-.19a74.7,74.7,0,0,0-2.79-11.3c-.56-1.74-1.19-3.51-1.94-5.4l-.06-.15c-.72-1.74-1.36-3.27-2.25-5.15a3.76,3.76,0,0,0-.59-1l-9,4.52.8,1.89c.53,1.21,1.07,2.47,1.56,3.72.7,1.73,1.36,3.45,1.91,4.89,1,2.71,1.83,5.18,2.5,7.51a22.06,22.06,0,0,1-3.31.4c-1.14.07-2.4.11-4,.11h-1c-1,0-2,0-3-.07-.93,1.52-1.31,3.88-1.56,6.14,1.29.39,2.59.72,4.08,1.07a49.78,49.78,0,0,0,5.31.88c.93.08,2,.17,3.18.17a20.49,20.49,0,0,0,2.75-.18,11.26,11.26,0,0,0,3.88-1.24,7.19,7.19,0,0,0,2.42-2.16,7,7,0,0,0,1.21-3.7A4.82,4.82,0,0,0,412.64,261.59Z" style="fill:#263238"></path><polygon points="357.31 264.25 319.19 264.25 319.19 267.18 358.57 279.38 396.69 279.38 396.69 276.45 357.31 264.25" style="fill:#C53F3F"></polygon><polygon points="319.19 267.18 357.31 267.18 396.69 279.38 358.57 279.38 319.19 267.18" style="opacity:0.2"></polygon><rect x="319.19" y="264.25" width="38.12" height="2.93" style="fill:#fafafa;opacity:0.2"></rect><polygon points="375.1 275.45 375.1 415.96 340.77 415.96 340.77 270.98 360.69 270.98 375.1 275.45" style="fill:#C53F3F"></polygon><polygon points="375.1 275.45 375.1 415.96 360.69 415.96 360.69 270.98 375.1 275.45" style="opacity:0.2"></polygon><polygon points="375.1 275.45 375.1 281.61 340.77 281.61 340.77 270.98 360.69 270.98 375.1 275.45" style="opacity:0.1"></polygon></g><g id="freepik--character-1--inject-19"><path d="M130.53,238.17c.11.53.47.9.82.83s.53-.55.43-1.08-.48-.89-.82-.82S130.42,237.65,130.53,238.17Z" style="fill:#263238"></path><path d="M131,239.08a19.49,19.49,0,0,0,3.43,4,3.06,3.06,0,0,1-2.41,1Z" style="fill:#892b29"></path><path d="M128,235.64a.28.28,0,0,1-.21-.08.32.32,0,0,1,0-.45,3.12,3.12,0,0,1,2.68-1,.31.31,0,1,1-.1.62h0a2.55,2.55,0,0,0-2.12.85A.3.3,0,0,1,128,235.64Z" style="fill:#263238"></path><path d="M115.54,245.58c.95,4.87,1.91,13.79-1.5,17,0,0,1.33,4.94,10.38,4.94,10,0,4.76-4.94,4.76-4.94-5.43-1.29-5.29-5.32-4.35-9.11Z" style="fill:#9f5b53"></path><path d="M112.75,240.63c1.71,6.38,2.39,10.2,6.33,12.86,5.92,4,13.3-.59,13.53-7.36.21-6.09-2.63-15.5-9.48-16.79A9,9,0,0,0,112.75,240.63Z" style="fill:#9f5b53"></path><path d="M115.68,251c2.71,1.55,12.61-3.64,10.58-11.51,0,0,3.77-4.53,3.34-9.53s-3.86-6.91-7.51-5.84c-3.22,1-3.13,2.71-3.13,2.71s-15.21,1.79-12,8C100.8,241.6,112.29,249.1,115.68,251Z" style="fill:#263238"></path><path d="M127.69,236.33a28.24,28.24,0,0,1,2.22,8.07s.61,1.43,2.76.44c0,0,3,6.47-1.52,10.13a4.73,4.73,0,0,1-6.37-.06c4.65-2.1,5.91-7.21,2-17.82Z" style="fill:#263238"></path><path d="M123.61,240.89a7.47,7.47,0,0,0,2.69,4c1.73,1.29,3,0,2.9-1.94-.11-1.77-1.15-4.57-3.06-5.09S123.11,239,123.61,240.89Z" style="fill:#9f5b53"></path><polygon points="173.4 410.7 179.97 408.29 177.4 391.98 170.84 394.39 173.4 410.7" style="fill:#9f5b53"></polygon><polygon points="170.84 394.39 177.4 391.99 178.87 401.31 172.24 403.38 170.84 394.39" style="isolation:isolate;opacity:0.2"></polygon><path d="M180.75,409s0,0,0,.05a.06.06,0,0,0,.06,0,8.87,8.87,0,0,0,1.84.26,1.93,1.93,0,0,0,1.32-.34.85.85,0,0,0,.2-.91.6.6,0,0,0-.37-.47,2.84,2.84,0,0,0-1.9.47,2.53,2.53,0,0,0,.62-1.64.62.62,0,0,0-.57-.5.79.79,0,0,0-.67.22c-.7.67-.5,2.64-.49,2.75l.11,0h0l-.11,0-.11,0A.09.09,0,0,0,180.75,409Zm.4-.51-.14.09a3.54,3.54,0,0,1,.47-2.17.47.47,0,0,1,.35-.15h.08c.23,0,.29.14.3.24A3.3,3.3,0,0,1,181.15,408.45Zm.12.34c.82-.51,2-1.09,2.44-.91a.27.27,0,0,1,.18.23.59.59,0,0,1-.12.58C183.44,409,182.52,409,181.27,408.79Z" style="fill:#C53F3F"></path><path d="M180.21,408.06l-7.85,0a.5.5,0,0,0-.52.47h0l-.41,6.21a1.23,1.23,0,0,0,1.21,1.24c2.74,0,4.05-.18,7.5-.19a65.68,65.68,0,0,0,9.21-.24c2.9-.45,2.38-3.3,1.11-3.37a19.1,19.1,0,0,1-9.05-3.69A1.93,1.93,0,0,0,180.21,408.06Z" style="fill:#263238"></path><path d="M108.13,274.41,105.52,279,103,283.61c-1.69,3.11-3.3,6.25-4.77,9.39-.74,1.58-1.43,3.15-2.07,4.73L96,298l0,.07a.28.28,0,0,0-.08.12c0,.08-.08.16-.13.26a1.89,1.89,0,0,0,.11,1,10,10,0,0,0,2.19,3.31,37.58,37.58,0,0,0,3.54,3.35l-2.13,4.53a23,23,0,0,1-5.69-2.46,15.58,15.58,0,0,1-5.11-4.73,10.46,10.46,0,0,1-1.6-4.14,9.62,9.62,0,0,1,.16-3.67l.15-.59.11-.36c.58-1.85,1.19-3.68,1.89-5.45A112.08,112.08,0,0,1,94,278.94q1.26-2.52,2.64-5c.93-1.64,1.84-3.23,2.9-4.88Z" style="fill:#9f5c53"></path><path d="M99.32,305.64l4.76-1.24.28,7.69s-3.73.56-6-1.72Z" style="fill:#9f5b53"></path><polygon points="110.83 303.11 109.76 309.86 104.36 312.09 104.08 304.4 110.83 303.11" style="fill:#9f5b53"></polygon><path d="M112.08,263.53c-.73-1.36-1.53-2.91.12-3.39,1.83-.53,13.54-1.52,17-.52-1.06,1.88.73,4.19.73,4.19Z" style="fill:#C53F3F"></path><path d="M102.12,264.13c-6.24,1.43-11.39,17.36-11.39,17.36L103.26,291a27.32,27.32,0,0,0,6.65-12.3C112.05,270.39,108.5,262.67,102.12,264.13Z" style="fill:#C53F3F"></path><path d="M102.12,264.13c-6.24,1.43-11.39,17.36-11.39,17.36L103.26,291a27.32,27.32,0,0,0,6.65-12.3C112.05,270.39,108.5,262.67,102.12,264.13Z" style="fill:#fafafa;opacity:0.6000000000000001"></path><path d="M107.47,275.84c-3.39,3.36-4.5,9.47-4.76,14.78l.55.42a27.39,27.39,0,0,0,6.65-12.3c.13-.5.24-1,.33-1.49Z" style="opacity:0.2"></path><path d="M139.42,264.47s7.09,8,.39,57.55H104.2c-.25-5.46,3.19-32.13-2.08-57.89A92.24,92.24,0,0,1,114,262.62a131.75,131.75,0,0,1,15.14,0A68,68,0,0,1,139.42,264.47Z" style="fill:#C53F3F"></path><path d="M139.42,264.47s7.09,8,.39,57.55H104.2c-.25-5.46,3.19-32.13-2.08-57.89A92.24,92.24,0,0,1,114,262.62a131.75,131.75,0,0,1,15.14,0A68,68,0,0,1,139.42,264.47Z" style="fill:#fafafa;opacity:0.6000000000000001"></path><path d="M142.53,279.62l-.13-.12-8.1,1.94c-.46,5.47,5.17,12,8.07,15A154.07,154.07,0,0,0,142.53,279.62Z" style="opacity:0.2"></path><path d="M144,266.69c3,2.32,6.21,4.73,9.33,6.85a46.15,46.15,0,0,0,4.64,2.8,15.36,15.36,0,0,0,2,.88l.34.11.18.06c.09,0-.12,0-.22,0a2.06,2.06,0,0,0-.29.07,1.13,1.13,0,0,0-.34.17c-.16.18.35-.16.75-.69a13.6,13.6,0,0,0,1.3-2,44.83,44.83,0,0,0,2.38-5.06c1.44-3.58,2.78-7.4,4-11.16l4.92.87a74.45,74.45,0,0,1-1.81,12.55,45.24,45.24,0,0,1-2,6.35,22,22,0,0,1-1.67,3.33,10.53,10.53,0,0,1-3.49,3.64,7.62,7.62,0,0,1-1.75.75,8.31,8.31,0,0,1-1,.22c-.35,0-.81.06-1,.05a13.42,13.42,0,0,1-1.34-.08c-.42-.05-.8-.12-1.16-.19a20.58,20.58,0,0,1-3.74-1.19A46.27,46.27,0,0,1,148,282a80.6,80.6,0,0,1-10.43-7.5Z" style="fill:#9f5c53"></path><path d="M129.45,275.3c.48,9.17,18.45,13,18.45,13l6.59-14.75a87,87,0,0,0-13.94-9.39C131.52,259.47,129.09,268.33,129.45,275.3Z" style="fill:#C53F3F"></path><path d="M129.45,275.3c.48,9.17,18.45,13,18.45,13l6.59-14.75a87,87,0,0,0-13.94-9.39C131.52,259.47,129.09,268.33,129.45,275.3Z" style="fill:#fafafa;opacity:0.6000000000000001"></path><path d="M179.94,398.53l-12.53,2.62s-12.32-34-13.27-56.46c-4.06.69-12.64,2.19-21.58,2.84-10.53.77-21.56.32-26.3-4.06S103.49,318,103.49,318l37-1.1,4.18,6.92c3.79.24,7.44.1,10.79.12a49.92,49.92,0,0,1,5.19.26c5.84.7,10.17,3.11,11.75,11.24C176.56,357,179.94,398.53,179.94,398.53Z" style="fill:#263238"></path><path d="M179.94,398.53l-12.53,2.62s-12.32-34-13.27-56.46c-4.06.69-12.64,2.19-21.58,2.84L155.44,324a49.92,49.92,0,0,1,5.19.26c5.84.7,10.17,3.11,11.75,11.24C176.56,357,179.94,398.53,179.94,398.53Z" style="isolation:isolate;opacity:0.2"></path><polygon points="188.28 410.27 195.15 408.92 195.16 392.41 188.3 393.77 188.28 410.27" style="fill:#9f5b53"></polygon><polygon points="188.3 393.77 195.16 392.42 195.16 401.86 188.29 402.86 188.3 393.77" style="isolation:isolate;opacity:0.2"></polygon><path d="M199.08,398.36l-12.79.69s-6.86-41.5-4.62-57.52c-.59,0-1.37,0-2.32.09-1.71.08-4,.22-6.64.4-18.49,1.27-55.72,4.56-55.72,4.56l10.16-22S192.91,314.08,200,330C203.37,337.64,199.08,398.36,199.08,398.36Z" style="fill:#263238"></path><path d="M196.17,409s0,0,0,.05a.07.07,0,0,0,.06,0,8.78,8.78,0,0,0,1.84.26,1.93,1.93,0,0,0,1.32-.34.87.87,0,0,0,.2-.91.6.6,0,0,0-.37-.47,2.84,2.84,0,0,0-1.9.47,2.58,2.58,0,0,0,.62-1.64.62.62,0,0,0-.58-.5.8.8,0,0,0-.67.22c-.69.67-.49,2.64-.49,2.75l.12,0h0l-.12,0-.11,0A.1.1,0,0,0,196.17,409Zm.4-.51-.14.09a3.54,3.54,0,0,1,.47-2.17.45.45,0,0,1,.34-.15h.08c.24,0,.3.14.31.24A3.3,3.3,0,0,1,196.57,408.45Zm.12.34c.81-.51,2-1.09,2.44-.91a.31.31,0,0,1,.18.23.61.61,0,0,1-.12.58C198.86,409,197.94,409,196.69,408.79Z" style="fill:#C53F3F"></path><path d="M195.63,408.06l-7.85,0a.49.49,0,0,0-.52.47h0l-.41,6.21a1.22,1.22,0,0,0,1.21,1.24c2.74,0,4.05-.18,7.5-.19a65.68,65.68,0,0,0,9.21-.24c2.9-.45,2.37-3.3,1.11-3.37a19.1,19.1,0,0,1-9-3.69A2,2,0,0,0,195.63,408.06Z" style="fill:#263238"></path><path d="M146.82,288c-.11,0,6.77-16,6.77-16l2.37,1.57L148.88,289Z" style="fill:#C53F3F"></path><path d="M173.93,259.17h0a1,1,0,0,1-1-1V232.21a1,1,0,0,1,1-1h0a1,1,0,0,1,1,1v25.94A1,1,0,0,1,173.93,259.17Z" style="fill:#263238"></path><ellipse cx="174.68" cy="225.04" rx="6.69" ry="9.03" style="fill:#C53F3F"></ellipse><ellipse cx="174.68" cy="225.04" rx="6.69" ry="9.03" style="opacity:0.2"></ellipse><ellipse cx="173.78" cy="225.04" rx="6.69" ry="9.03" style="fill:#C53F3F"></ellipse><path d="M175.86,226.89c0,1.49-.71,2.72-2.21,2.72a2.76,2.76,0,0,1-2.1-1l.44-1.22a2.13,2.13,0,0,0,1.64.83,1.14,1.14,0,0,0,1.19-1.29c0-.81-.35-1.32-1.51-1.32H172l.28-4.62h3.28v1.32h-2.4l-.12,2h.54C175.2,224.29,175.86,225.39,175.86,226.89Z" style="fill:#fff"></path><path d="M174,250.83l-2.24.55a2.66,2.66,0,0,0-1.86,1.62l-1.51,3.77a5,5,0,0,0,.45,4.59l.54.85c3.79-.66,7.41-4.17,7.41-4.17l1.14-.88a2.24,2.24,0,0,0,.47-3.15l-1.72-2.28A2.59,2.59,0,0,0,174,250.83Z" style="fill:#9f5b53"></path><path d="M169.36,348.39V416H79.2V279a12.47,12.47,0,0,1,12.48-12.48H117a12.47,12.47,0,0,1,12.23,10L141,335.17a4.85,4.85,0,0,0,4.74,3.88H160A9.34,9.34,0,0,1,169.36,348.39Z" style="fill:#C53F3F"></path><path d="M130.23,349.6C126,362.06,114,357.72,114,357.72c8,.38,13.17-9.18,15.07-13.36l-13.6-63.77a8.69,8.69,0,0,0-8.49-6.87H84.59A5.34,5.34,0,0,0,79.2,279V416h51.34V351ZM84,304.4S95.46,323,106.47,324C106.47,324,90.72,326.14,84,304.4Z" style="isolation:isolate;opacity:0.2"></path><path d="M162.36,357.73s-9.29,32.64-19.67,35.92C142.69,393.65,159.66,368.72,162.36,357.73Z" style="isolation:isolate;opacity:0.2"></path></g><g id="freepik--character-2--inject-19"><path d="M312,392l-3.6,2.29C278.69,366.6,268.11,340,268.11,340l-2.7,67.77-5.66,0c-3.07-17.08-4.67-30.49-5.47-40.48-1.23-15.26-.62-22.5-.62-22.5s-5.55,1.08-12.87,2c-13.53,1.62-33.13,2.5-35.07-5.56-3-12.43,1.35-24.47,1.35-24.47l28-.46,4.2,5.71s29.5-5.89,34.28-3.52S312,392,312,392Z" style="fill:#e9b376"></path><path d="M268.11,340c-.39,6.22-7.42,17.85-13.83,27.33-1.23-15.26-.62-22.5-.62-22.5s-5.55,1.08-12.87,2c7.16-9.74,15.79-19.71,20-18A11.38,11.38,0,0,1,268.11,340Z" style="isolation:isolate;opacity:0.2"></path><path d="M202.53,286.58c-.36.49-.83,1.18-1.24,1.79s-.84,1.28-1.25,1.94c-.79,1.31-1.59,2.64-2.32,4a62,62,0,0,0-3.79,8.36l-.65,1.92a1.18,1.18,0,0,0-.05.75,9.85,9.85,0,0,0,1.53,3.27,50.24,50.24,0,0,0,5.93,7L198.34,319a32.93,32.93,0,0,1-8.57-6.35,15,15,0,0,1-3.38-5.24,8.46,8.46,0,0,1-.42-4.13l.1-.58.08-.32.15-.65.32-1.3a55.62,55.62,0,0,1,3.78-9.89c.79-1.56,1.62-3.11,2.55-4.6.47-.74.94-1.48,1.44-2.22s1-1.41,1.63-2.23Z" style="fill:#e9b376"></path><path d="M200.36,275.58c-4.6,1.19-9.64,12-9.64,12l9.34,7.29s8.4-7.08,8-14C207.85,277.38,204.88,274.41,200.36,275.58Z" style="fill:#263238"></path><path d="M199.18,314.89l6.54,3.61-4.91,2.4s-3.63-1.18-3.24-4Z" style="fill:#ebb376"></path><polygon points="206.33 321.21 204.18 324.4 200.81 320.9 205.72 318.5 206.33 321.21" style="fill:#ebb376"></polygon><path d="M230.72,253.85c0,.55.24,1,.6,1.05s.68-.39.71-.94-.24-1-.6-1.05S230.75,253.3,230.72,253.85Z" style="fill:#263238"></path><path d="M231.26,252.93l1.35-.27S231.88,253.63,231.26,252.93Z" style="fill:#263238"></path><path d="M231.16,254.42a14.88,14.88,0,0,0,1.79,3.66,2.39,2.39,0,0,1-2,.21Z" style="fill:#a02724"></path><path d="M231.65,250.25a.26.26,0,0,1-.15,0,2.68,2.68,0,0,0-2.39.12.32.32,0,1,1-.36-.54,3.34,3.34,0,0,1,3-.18.32.32,0,0,1-.09.62Z" style="fill:#263238"></path><path d="M214.44,260.62c1,4,.62,10.92-2.12,13.66,0,0,3,3.94,10.56,3.82,8.35-.14,3.81-4.16,3.81-4.16-4.6-1-4.63-4.34-4-7.5Z" style="fill:#ebb376"></path><path d="M240.8,280.06c1.58,3.53,3.21,7.15,4.86,10.66.82,1.76,1.71,3.48,2.57,5.17a42.37,42.37,0,0,0,2.71,4.58,7.26,7.26,0,0,0,.51.64s.05.05-.18-.07a1.61,1.61,0,0,0-.63-.15c-.29,0-.2.06,0,0a4.87,4.87,0,0,0,.82-.29,24.74,24.74,0,0,0,4.33-2.84c3-2.31,5.91-5,8.77-7.6l3.17,2.6a64.6,64.6,0,0,1-7.66,9.74,27,27,0,0,1-5.21,4.34,11.21,11.21,0,0,1-1.9.94,7,7,0,0,1-2.94.47,5.68,5.68,0,0,1-2.07-.54,7.12,7.12,0,0,1-1.41-.93,13.72,13.72,0,0,1-1.53-1.54,40.81,40.81,0,0,1-3.74-5.48c-1.07-1.79-2-3.61-3-5.43-1.87-3.64-3.55-7.28-5.12-11.07Z" style="fill:#e9b376"></path><path d="M207.07,316.77l28-.45c4.82-40,1.53-40.61,1.53-40.61a58,58,0,0,0-6.69-1.55l-.39-.06c-1.85-.26-2.24-.28-4.68-.46-4.15-.11-8-.09-12.69.21q-.45,0-.9.06c-.84.07-1.68.16-2.49.25-.54,0-1.08.13-1.6.2l-1.75.27c-3,.47-5.06,1-5.06,1C206.75,298.58,207,305.52,207.07,316.77Z" style="fill:#263238"></path><path d="M233.51,288.22a23.22,23.22,0,0,0,3.26,11.56c.69-7.78.9-13,.87-16.6C235.53,283.34,233.47,284.47,233.51,288.22Z" style="opacity:0.2"></path><path d="M236.3,275.63c5.09,2,9.32,10.05,10.86,13.62l-8.61,8.5s-8.33-11.45-7.15-15.08S234.37,274.88,236.3,275.63Z" style="fill:#263238"></path><path d="M212.28,250.86c.06,6.77-.06,9.64,3.2,13.37,4.89,5.61,13.25,4.29,15.22-2.3,1.78-5.94,1.38-16-5.14-19.23A9.05,9.05,0,0,0,212.28,250.86Z" style="fill:#ebb376"></path><path d="M225.68,252.89a6.08,6.08,0,0,0,1.59,3.33c1.2,1.31,2.38.79,2.54-.54s-.31-3.33-1.75-4.16S225.53,251.49,225.68,252.89Z" style="fill:#ebb376"></path><path d="M207,313.27s-7.46,21.48-2.38,31.57,54.73,2.61,54.73,2.61,7.65-16.31,5-30.15l-26.77,2.58-2.59-5.66Z" style="fill:#C53F3F"></path><path d="M207,313.27s-7.46,21.48-2.38,31.57,54.73,2.61,54.73,2.61,7.65-16.31,5-30.15l-26.77,2.58-2.59-5.66Z" style="fill:#fafafa;opacity:0.6000000000000001"></path><path d="M269.07,406.12a.55.55,0,0,0-.55-.45.85.85,0,0,0-.7.22c-.74.66-.75,2.59-.75,2.67a.18.18,0,0,0,.08.14.17.17,0,0,0,.17,0,4.94,4.94,0,0,0,1.47-1.58A1.56,1.56,0,0,0,269.07,406.12Zm-1,0a.57.57,0,0,1,.45-.14c.22,0,.26.11.28.19.09.46-.7,1.56-1.35,2.07A3.61,3.61,0,0,1,268,406.13Z" style="fill:#263238"></path><path d="M266.65,407.78l-7.8,0a.55.55,0,0,0-.56.46l-.86,6a1.09,1.09,0,0,0,1.12,1.19c2.72-.05,4-.21,7.47-.23,2.11,0,5.19.19,8.11.18s3.06-2.81,1.84-3.06c-5.45-1.12-6.31-2.68-8.15-4.17A1.87,1.87,0,0,0,266.65,407.78Z" style="fill:#C53F3F"></path><path d="M270.62,407.74a.54.54,0,0,0-.32-.44c-.8-.37-2.91,1-3.15,1.12a.16.16,0,0,0-.07.17.18.18,0,0,0,.12.13c.91.2,2.53.46,3.17-.14a.7.7,0,0,0,.15-.19A.93.93,0,0,0,270.62,407.74Zm-.45-.15a.24.24,0,0,1,.13.2.59.59,0,0,1-.15.56,3.36,3.36,0,0,1-2.48.13C268.53,408,269.75,407.4,270.17,407.59Z" style="fill:#C53F3F"></path><path d="M266.65,407.78l-7.8,0a.55.55,0,0,0-.56.46l-.86,6a1.09,1.09,0,0,0,1.12,1.19c2.72-.05,4-.21,7.47-.23,2.11,0,5.19.19,8.11.18s3.06-2.81,1.84-3.06c-5.45-1.12-6.31-2.68-8.15-4.17A1.87,1.87,0,0,0,266.65,407.78Z" style="fill:#fafafa;opacity:0.6000000000000001"></path><path d="M314.92,385.78a.94.94,0,0,0-.33-.79.49.49,0,0,0-.49-.12c-.91.23-1.93,3.17-2,3.5a.17.17,0,0,0,.05.18.17.17,0,0,0,.19,0,11.61,11.61,0,0,0,1.71-1.32A2.63,2.63,0,0,0,314.92,385.78Zm-.73-.6a.2.2,0,0,1,.19.05.64.64,0,0,1,.22.52c-.05.56-.81,1.4-2.07,2.27C313,386.84,313.69,385.31,314.19,385.18Z" style="fill:#263238"></path><path d="M312.36,388.48c.34-.84.5-3.06-.13-3.53-.15-.11-.39-.18-.74.1a.39.39,0,0,0-.1.08c-1.1,1.07.62,3.3.7,3.39a.14.14,0,0,0,.15.06.18.18,0,0,0,.09,0A.09.09,0,0,0,312.36,388.48Zm-.67-3.18c.23-.18.32-.11.35-.09.37.28.38,1.9.12,2.86-.4-.58-1.25-2-.54-2.71Z" style="fill:#263238"></path><path d="M311.36,388.15l-5.52,5.36a.58.58,0,0,0-.08.73l3.5,5.08a1.06,1.06,0,0,0,1.61.13c1.9-1.9,2.72-2.92,5.14-5.27,1.5-1.45,4.73-4.29,6.79-6.29s.25-4.2-.79-3.56c-4.63,2.89-7.22,3.19-9.55,3.34A1.71,1.71,0,0,0,311.36,388.15Z" style="fill:#C53F3F"></path><path d="M311.36,388.15l-5.52,5.36a.58.58,0,0,0-.08.73l3.5,5.08a1.06,1.06,0,0,0,1.61.13c1.9-1.9,2.72-2.92,5.14-5.27,1.5-1.45,4.73-4.29,6.79-6.29s.25-4.2-.79-3.56c-4.63,2.89-7.22,3.19-9.55,3.34A1.71,1.71,0,0,0,311.36,388.15Z" style="fill:#fafafa;opacity:0.6000000000000001"></path><path d="M205.06,276.9c-1.17-7.57,2.24-11.14,1.75-16.28s-3.21-8.9,0-14.88,9.13-8.37,15.94-6.81,12.43,4.21,6.46,16c0,0,.42,6.54-1.46,11.3s1.56,9.56-1,15.47S207.69,293.83,205.06,276.9Z" style="fill:#C53F3F"></path><path d="M205.06,276.9c-1.17-7.57,2.24-11.14,1.75-16.28s-3.21-8.9,0-14.88,9.13-8.37,15.94-6.81,12.43,4.21,6.46,16c0,0,.42,6.54-1.46,11.3s1.56,9.56-1,15.47S207.69,293.83,205.06,276.9Z" style="isolation:isolate;opacity:0.4"></path><path d="M268,293.78h0a1,1,0,0,1-1-1V266.82a1,1,0,0,1,1-1h0a1,1,0,0,1,1,1v25.94A1,1,0,0,1,268,293.78Z" style="fill:#263238"></path><ellipse cx="268.8" cy="259.65" rx="6.69" ry="9.03" style="fill:#C53F3F"></ellipse><ellipse cx="268.8" cy="259.65" rx="6.69" ry="9.03" style="opacity:0.2"></ellipse><ellipse cx="267.89" cy="259.65" rx="6.69" ry="9.03" style="fill:#C53F3F"></ellipse><path d="M269.88,261.55c0,1.43-.71,2.67-2.21,2.67a2.77,2.77,0,0,1-2.1-1L266,262a2.1,2.1,0,0,0,1.63.84,1.14,1.14,0,0,0,1.18-1.28,1.1,1.1,0,0,0-1.21-1.26h-.51v-1.08l1.27-2.29h-2.54v-1.32h3.81v1.05l-1.36,2.45C269.34,259.33,269.88,260.28,269.88,261.55Z" style="fill:#fff"></path><path d="M268.56,285.72l-1.74.42a2.12,2.12,0,0,0-1.44,1.26l-1.17,2.92a3.94,3.94,0,0,0,.35,3.56l.42.65c2.94-.51,5.74-3.22,5.74-3.22l.88-.69a1.73,1.73,0,0,0,.37-2.44l-1.34-1.77A2,2,0,0,0,268.56,285.72Z" style="fill:#e9b376"></path><path d="M251.89,348.39V416H161.73V279a12.47,12.47,0,0,1,12.48-12.48h25.36a12.48,12.48,0,0,1,12.23,10l11.73,58.63a4.85,4.85,0,0,0,4.74,3.88h14.28A9.34,9.34,0,0,1,251.89,348.39Z" style="fill:#C53F3F"></path><path d="M212.76,349.6c-4.23,12.46-16.19,8.12-16.19,8.12,8,.38,13.17-9.18,15.07-13.36L198,280.59a8.69,8.69,0,0,0-8.5-6.87H167.12a5.34,5.34,0,0,0-5.39,5.23V416h51.33V351Zm-46.21-45.2S178,323,189,324C189,324,173.25,326.14,166.55,304.4Z" style="isolation:isolate;opacity:0.2"></path><path d="M244.89,357.73s-9.29,32.64-19.67,35.92C225.22,393.65,242.19,368.72,244.89,357.73Z" style="isolation:isolate;opacity:0.2"></path></g></svg>
